<?xml version="1.0" encoding="UTF-8"?>
<!DOCTYPE svg PUBLIC "-//W3C//DTD SVG 1.1//EN" "http://www.w3.org/Graphics/SVG/1.1/DTD/svg11.dtd">
<!-- Creator: CorelDRAW 2017 -->
<svg xmlns="http://www.w3.org/2000/svg" xml:space="preserve" width="1879px" height="2453px" version="1.1" style="shape-rendering:geometricPrecision; text-rendering:geometricPrecision; image-rendering:optimizeQuality; fill-rule:evenodd; clip-rule:evenodd"
viewBox="0 0 1879 2452.7"
 xmlns:xlink="http://www.w3.org/1999/xlink"
 aria-hidden="true"
 role="img">
 <defs>
  <style type="text/css">
   <![CDATA[
    .fil2 {fill:#3E721D}
    .fil1 {fill:#5C913B}
    .fil0 {fill:#662113}
    .fil6 {fill:#A6D388}
    .fil5 {fill:#DD2E44}
    .fil3 {fill:#FFAC33}
    .fil4 {fill:#FFCC4D}
   ]]>
  </style>
 </defs>
 <g id="Слой_x0020_1">
  <metadata id="CorelCorpID_0Corel-Layer"/>
  <g id="_1953822894656">
   <path class="fil0" d="M1190.64 2264.36c0,138.68 -112.43,188.34 -251.12,188.34 -138.69,0 -251.12,-49.66 -251.12,-188.34l62.78 -565.03c0,-138.62 49.65,-125.56 188.34,-125.56 138.69,0 188.34,-13.06 188.34,125.56l62.78 565.03 0 0z"/>
   <path class="fil1" d="M1781.09 1906.35c-437.11,-374.46 -614.13,-910.6 -841.57,-910.6 -227.44,0 -404.47,536.21 -841.57,910.6 -183.69,157.37 -96.19,248.42 155.63,230.15 224.46,-16.18 434.4,-67.08 685.94,-67.08 251.54,0 461.55,50.9 685.86,67.08 251.89,18.27 339.33,-72.85 155.71,-230.15l0 0z"/>
   <path class="fil2" d="M1639.14 1757.94c-335.92,-308 -524.68,-749.13 -699.62,-749.13 -174.8,0 -363.63,441.13 -699.55,749.13 -266.96,244.74 349.81,299.67 699.55,0 349.6,299.74 966.5,244.74 699.62,0z"/>
   <path class="fil1" d="M1639.14 1508.42c-335.92,-287.73 -524.68,-699.83 -699.62,-699.83 -174.8,0 -363.63,412.1 -699.55,699.83 -266.96,228.62 349.81,279.94 699.55,0 349.6,280.01 966.5,228.62 699.62,0z"/>
   <path class="fil2" d="M1485.66 1304.1c-262.17,-224.66 -409.54,-546.41 -546.14,-546.41 -136.47,0 -283.9,321.68 -546.14,546.41 -208.34,178.48 273.07,218.55 546.14,0 272.93,218.48 754.55,178.48 546.14,0z"/>
   <path class="fil1" d="M1485.66 1117.15c-262.17,-224.67 -409.54,-546.35 -546.14,-546.35 -136.47,0 -283.9,321.68 -546.14,546.35 -208.34,178.55 273.07,218.55 546.14,0 272.93,218.55 754.55,178.55 546.14,0z"/>
   <path class="fil2" d="M1380.23 951.1c-211.6,-181.26 -330.57,-440.93 -440.78,-440.93 -110.15,0 -229.11,259.67 -440.79,440.93 -168.2,144.1 220.43,176.4 440.79,0 220.43,176.4 609.06,144.1 440.78,0z"/>
   <path class="fil1" d="M1380.23 810.4c-211.6,-181.26 -330.57,-440.93 -440.78,-440.93 -110.15,0 -229.11,259.67 -440.79,440.93 -168.2,144.1 220.43,176.39 440.79,0 220.43,176.39 609.06,144.1 440.78,0z"/>
   <path class="fil2" d="M1274.88 603.23c-160.98,-137.92 -251.47,-335.5 -335.36,-335.5 -83.82,0 -174.39,197.58 -335.43,335.5 -128,109.66 167.71,134.25 335.43,0 167.65,134.25 463.42,109.66 335.36,0l0 0z"/>
   <path class="fil1" d="M1274.88 528.3c-160.98,-137.99 -251.47,-335.57 -335.36,-335.57 -83.82,0 -174.39,197.58 -335.43,335.57 -128,109.66 167.71,134.24 335.43,0 167.65,134.17 463.42,109.59 335.36,0l0 0z"/>
   <path class="fil3" d="M1002.51 100.99c9.93,19.1 35.56,38.12 56.74,42.29l95.77 18.68c21.18,4.17 26.18,20.14 11.04,35.56l-68.27 69.73c-15.07,15.41 -25.35,45.62 -22.64,67.01l11.81 96.81c2.63,21.46 -11.05,31.12 -30.42,21.53l-87.3 -43.4c-19.37,-9.59 -51.25,-10 -70.83,-0.91l-88.48 41.26c-19.58,9.03 -33.06,-0.98 -29.86,-22.36l14.23 -96.54c3.13,-21.32 -6.31,-51.74 -20.97,-67.57l-66.6 -71.32c-14.72,-15.77 -9.37,-31.74 11.95,-35.28l96.18 -16.25c21.32,-3.55 47.3,-21.95 57.78,-40.84l47.29 -85.35c10.49,-18.89 27.37,-18.68 37.3,0.42l45.28 86.53z"/>
  </g>
  <circle class="fil4" cx="802.57" cy="820.68" r="104.17"/>
  <circle class="fil4" cx="1045.64" cy="1720.58" r="138.89"/>
  <circle class="fil5" cx="1219.25" cy="1060.83" r="173.62"/>
  <circle class="fil5" cx="351.16" cy="1790.03" r="138.89"/>
  <circle class="fil6" cx="628.95" cy="1303.89" r="138.89"/>
  <circle class="fil6" cx="1462.32" cy="1581.68" r="138.89"/>
 </g>
</svg>
