<?xml version="1.0" encoding="UTF-8"?>
<!DOCTYPE svg PUBLIC "-//W3C//DTD SVG 1.1//EN" "http://www.w3.org/Graphics/SVG/1.1/DTD/svg11.dtd">
<!-- Creator: CorelDRAW 2017 -->
<svg xmlns="http://www.w3.org/2000/svg" xml:space="preserve" width="75px" height="89px" version="1.1" style="shape-rendering:geometricPrecision; text-rendering:geometricPrecision; image-rendering:optimizeQuality; fill-rule:evenodd; clip-rule:evenodd"
viewBox="0 0 75 89.49"
 xmlns:xlink="http://www.w3.org/1999/xlink">
 <defs>
  <style type="text/css">
   <![CDATA[
    .fil17 {fill:#643800}
    .fil28 {fill:url(#id12)}
    .fil22 {fill:url(#id13)}
    .fil11 {fill:url(#id14)}
    .fil12 {fill:url(#id15)}
    .fil27 {fill:url(#id16)}
    .fil13 {fill:url(#id17)}
    .fil0 {fill:url(#id18)}
    .fil16 {fill:url(#id19)}
    .fil35 {fill:url(#id20)}
    .fil3 {fill:url(#id21)}
    .fil23 {fill:url(#id22)}
    .fil33 {fill:url(#id23)}
    .fil30 {fill:url(#id24)}
    .fil34 {fill:url(#id25)}
    .fil32 {fill:url(#id26)}
    .fil2 {fill:url(#id27)}
    .fil21 {fill:url(#id28)}
    .fil26 {fill:url(#id29)}
    .fil20 {fill:url(#id30)}
    .fil24 {fill:url(#id31)}
    .fil29 {fill:url(#id32)}
    .fil1 {fill:url(#id33)}
    .fil31 {fill:url(#id34)}
    .fil18 {fill:url(#id35)}
    .fil25 {fill:url(#id36)}
    .fil9 {fill:url(#id37)}
    .fil14 {fill:url(#id38)}
    .fil15 {fill:url(#id39)}
    .fil19 {fill:url(#id40)}
    .fil37 {fill:url(#id41)}
    .fil38 {fill:url(#id42)}
    .fil36 {fill:url(#id43)}
    .fil6 {fill:url(#id44)}
    .fil5 {fill:url(#id45)}
    .fil8 {fill:url(#id46)}
    .fil7 {fill:url(#id47)}
    .fil10 {fill:url(#id48)}
    .fil4 {fill:url(#id49)}
   ]]>
  </style>
    <mask id="id0">
  <radialGradient id="id1" gradientUnits="userSpaceOnUse" cx="0.4" cy="19.73" r="0" fx="0.4" fy="19.73">
   <stop offset="0" style="stop-opacity:1; stop-color:white"/>
   <stop offset="1" style="stop-opacity:0; stop-color:white"/>
   <stop offset="-109.733" style="stop-opacity:1; stop-color:white"/>
   <stop offset="1" style="stop-opacity:1; stop-color:white"/>
  </radialGradient>
     <rect style="fill:url(#id1)" x="0.4" y="19.73" width="65.48" height="56.37"/>
    </mask>
    <mask id="id2">
  <radialGradient id="id3" gradientUnits="userSpaceOnUse" cx="0.4" cy="19.73" r="0" fx="0.4" fy="19.73">
   <stop offset="0" style="stop-opacity:1; stop-color:white"/>
   <stop offset="-67.1098" style="stop-opacity:1; stop-color:white"/>
   <stop offset="0.14902" style="stop-opacity:1; stop-color:white"/>
   <stop offset="0.180392" style="stop-opacity:1; stop-color:white"/>
   <stop offset="0.4" style="stop-opacity:0.733333; stop-color:white"/>
   <stop offset="0.780392" style="stop-opacity:0.266667; stop-color:white"/>
   <stop offset="1" style="stop-opacity:0; stop-color:white"/>
  </radialGradient>
     <rect style="fill:url(#id3)" x="0.4" y="19.73" width="65.48" height="56.37"/>
    </mask>
    <mask id="id4">
  <radialGradient id="id5" gradientUnits="userSpaceOnUse" cx="0.4" cy="19.73" r="0" fx="0.4" fy="19.73">
   <stop offset="0" style="stop-opacity:1; stop-color:white"/>
   <stop offset="-67.1098" style="stop-opacity:1; stop-color:white"/>
   <stop offset="0.14902" style="stop-opacity:1; stop-color:white"/>
   <stop offset="0.180392" style="stop-opacity:1; stop-color:white"/>
   <stop offset="0.4" style="stop-opacity:0.733333; stop-color:white"/>
   <stop offset="0.780392" style="stop-opacity:0.266667; stop-color:white"/>
   <stop offset="1" style="stop-opacity:0; stop-color:white"/>
  </radialGradient>
     <rect style="fill:url(#id5)" x="0.4" y="19.73" width="65.48" height="56.37"/>
    </mask>
    <mask id="id6">
  <radialGradient id="id7" gradientUnits="userSpaceOnUse" cx="1.13" cy="16.5" r="0" fx="1.13" fy="16.5">
   <stop offset="0" style="stop-opacity:1; stop-color:white"/>
   <stop offset="-67.1098" style="stop-opacity:0; stop-color:white"/>
   <stop offset="0.290196" style="stop-opacity:0.352941; stop-color:white"/>
   <stop offset="0.631373" style="stop-opacity:0.764706; stop-color:white"/>
   <stop offset="0.819608" style="stop-opacity:1; stop-color:white"/>
   <stop offset="0.85098" style="stop-opacity:1; stop-color:white"/>
   <stop offset="1" style="stop-opacity:1; stop-color:white"/>
  </radialGradient>
     <rect style="fill:url(#id7)" x="1.13" y="16.5" width="66.58" height="26.39"/>
    </mask>
    <mask id="id8">
  <radialGradient id="id9" gradientUnits="userSpaceOnUse" cx="11.81" cy="52.08" r="0" fx="11.81" fy="52.08">
   <stop offset="0" style="stop-opacity:1; stop-color:white"/>
   <stop offset="-67.1098" style="stop-opacity:0; stop-color:white"/>
   <stop offset="0.529412" style="stop-opacity:0.52549; stop-color:white"/>
   <stop offset="1" style="stop-opacity:1; stop-color:white"/>
  </radialGradient>
     <rect style="fill:url(#id9)" x="11.81" y="52.08" width="43.6" height="9.93"/>
    </mask>
    <mask id="id10">
  <radialGradient id="id11" gradientUnits="userSpaceOnUse" cx="26.74" cy="0.24" r="0" fx="26.74" fy="0.24">
   <stop offset="0" style="stop-opacity:1; stop-color:white"/>
   <stop offset="-67.1098" style="stop-opacity:1; stop-color:white"/>
   <stop offset="1" style="stop-opacity:0; stop-color:white"/>
  </radialGradient>
     <rect style="fill:url(#id11)" x="26.74" y="0.24" width="24.7" height="10.47"/>
    </mask>
  <linearGradient id="id12" gradientUnits="userSpaceOnUse" x1="10.01" y1="95.08" x2="10.01" y2="62.64">
   <stop offset="0" style="stop-opacity:1; stop-color:white"/>
   <stop offset="-127.133" style="stop-opacity:1; stop-color:white"/>
   <stop offset="0.180392" style="stop-opacity:1; stop-color:#F7F9F9"/>
   <stop offset="0.458824" style="stop-opacity:1; stop-color:#E3E9E9"/>
   <stop offset="0.8" style="stop-opacity:1; stop-color:#C1CED0"/>
   <stop offset="1" style="stop-opacity:1; stop-color:#A9BCBE"/>
  </linearGradient>
  <linearGradient id="id13" gradientUnits="userSpaceOnUse" x1="2.24" y1="24.61" x2="66" y2="24.61">
   <stop offset="0" style="stop-opacity:1; stop-color:#E6EDEE"/>
   <stop offset="0.0392157" style="stop-opacity:1; stop-color:#E6EDEE"/>
   <stop offset="0.14902" style="stop-opacity:1; stop-color:#F4F7F7"/>
   <stop offset="0.270588" style="stop-opacity:1; stop-color:#FDFDFD"/>
   <stop offset="0.490196" style="stop-opacity:1; stop-color:white"/>
   <stop offset="0.701961" style="stop-opacity:1; stop-color:#FDFDFD"/>
   <stop offset="0.788235" style="stop-opacity:1; stop-color:#F6F8F8"/>
   <stop offset="0.858824" style="stop-opacity:1; stop-color:#E9EEEF"/>
   <stop offset="0.909804" style="stop-opacity:1; stop-color:#D8E0E1"/>
   <stop offset="0.960784" style="stop-opacity:1; stop-color:#C1CFD0"/>
   <stop offset="1" style="stop-opacity:1; stop-color:#A9BCBE"/>
   <stop offset="116.58" style="stop-opacity:1; stop-color:#DEE7E8"/>
   <stop offset="1" style="stop-opacity:1; stop-color:#DEE7E8"/>
  </linearGradient>
  <linearGradient id="id14" gradientUnits="userSpaceOnUse" x1="22.37" y1="36.91" x2="22.37" y2="41.39">
   <stop offset="0" style="stop-opacity:1; stop-color:#3C2200"/>
   <stop offset="1" style="stop-opacity:1; stop-color:#512D00"/>
  </linearGradient>
  <linearGradient id="id15" gradientUnits="userSpaceOnUse" x1="17.9" y1="27.21" x2="17.9" y2="37.8">
   <stop offset="0" style="stop-opacity:1; stop-color:#A9BCBE"/>
   <stop offset="0.0705882" style="stop-opacity:1; stop-color:#C3D1D2"/>
   <stop offset="0.160784" style="stop-opacity:1; stop-color:#D9E2E2"/>
   <stop offset="0.25098" style="stop-opacity:1; stop-color:#EAEFEF"/>
   <stop offset="0.380392" style="stop-opacity:1; stop-color:#F6F8F8"/>
   <stop offset="0.54902" style="stop-opacity:1; stop-color:#FDFEFE"/>
   <stop offset="1" style="stop-opacity:1; stop-color:white"/>
  </linearGradient>
  <linearGradient id="id16" gradientUnits="userSpaceOnUse" x1="5.48" y1="89.44" x2="5.48" y2="45.94">
   <stop offset="0" style="stop-opacity:1; stop-color:white"/>
   <stop offset="111.992" style="stop-opacity:1; stop-color:white"/>
   <stop offset="0.180392" style="stop-opacity:1; stop-color:#F7F9F9"/>
   <stop offset="0.458824" style="stop-opacity:1; stop-color:#E3E9E9"/>
   <stop offset="0.8" style="stop-opacity:1; stop-color:#C1CED0"/>
   <stop offset="1" style="stop-opacity:1; stop-color:#A9BCBE"/>
  </linearGradient>
  <linearGradient id="id17" gradientUnits="userSpaceOnUse" xlink:href="#id15" x1="46.82" y1="29.34" x2="44.67" y2="36.52">
  </linearGradient>
  <linearGradient id="id18" gradientUnits="userSpaceOnUse" x1="46.68" y1="61.52" x2="19.48" y2="-6.71">
   <stop offset="0" style="stop-opacity:1; stop-color:#980704"/>
   <stop offset="0.0509804" style="stop-opacity:1; stop-color:#980704"/>
   <stop offset="0.14902" style="stop-opacity:1; stop-color:#B80503"/>
   <stop offset="0.270588" style="stop-opacity:1; stop-color:#D20302"/>
   <stop offset="0.388235" style="stop-opacity:1; stop-color:#E60201"/>
   <stop offset="0.529412" style="stop-opacity:1; stop-color:#F40100"/>
   <stop offset="0.709804" style="stop-opacity:1; stop-color:#FD0000"/>
   <stop offset="1" style="stop-opacity:1; stop-color:red"/>
   <stop offset="4.7098" style="stop-opacity:1; stop-color:#860805"/>
   <stop offset="1" style="stop-opacity:1; stop-color:#860805"/>
  </linearGradient>
  <linearGradient id="id19" gradientUnits="userSpaceOnUse" xlink:href="#id14" x1="44.75" y1="37.29" x2="44.75" y2="40.45">
  </linearGradient>
  <linearGradient id="id20" gradientUnits="userSpaceOnUse" x1="35.8" y1="106.27" x2="35.8" y2="68.24">
   <stop offset="0" style="stop-opacity:1; stop-color:#F7F9F9"/>
   <stop offset="0.180392" style="stop-opacity:1; stop-color:#F7F9F9"/>
   <stop offset="0.458824" style="stop-opacity:1; stop-color:#E3E9E9"/>
   <stop offset="0.8" style="stop-opacity:1; stop-color:#C1CED0"/>
   <stop offset="1" style="stop-opacity:1; stop-color:#A9BCBE"/>
   <stop offset="43.9216" style="stop-opacity:1; stop-color:white"/>
   <stop offset="1" style="stop-opacity:1; stop-color:white"/>
  </linearGradient>
  <linearGradient id="id21" gradientUnits="userSpaceOnUse" x1="62.64" y1="36.49" x2="66" y2="54.86">
   <stop offset="0" style="stop-opacity:1; stop-color:#900E09"/>
   <stop offset="0.0588235" style="stop-opacity:1; stop-color:#900E09"/>
   <stop offset="0.219608" style="stop-opacity:1; stop-color:#A41910"/>
   <stop offset="0.4" style="stop-opacity:1; stop-color:#B22115"/>
   <stop offset="0.619608" style="stop-opacity:1; stop-color:#BB2618"/>
   <stop offset="1" style="stop-opacity:1; stop-color:#BD2719"/>
   <stop offset="73.9804" style="stop-opacity:1; stop-color:#860805"/>
   <stop offset="1" style="stop-opacity:1; stop-color:#860805"/>
  </linearGradient>
  <linearGradient id="id22" gradientUnits="userSpaceOnUse" x1="0" y1="53.91" x2="69.35" y2="53.91">
   <stop offset="0" style="stop-opacity:1; stop-color:#CFDCDE"/>
   <stop offset="34.8118" style="stop-opacity:1; stop-color:#CFDCDE"/>
   <stop offset="0.0117647" style="stop-opacity:1; stop-color:#D2DEE0"/>
   <stop offset="0.0901961" style="stop-opacity:1; stop-color:#E6EDEE"/>
   <stop offset="0.180392" style="stop-opacity:1; stop-color:#F4F7F8"/>
   <stop offset="0.301961" style="stop-opacity:1; stop-color:#FDFDFD"/>
   <stop offset="0.490196" style="stop-opacity:1; stop-color:white"/>
   <stop offset="0.701961" style="stop-opacity:1; stop-color:#FDFDFD"/>
   <stop offset="0.788235" style="stop-opacity:1; stop-color:#F6F8F8"/>
   <stop offset="0.858824" style="stop-opacity:1; stop-color:#E9EEEF"/>
   <stop offset="0.909804" style="stop-opacity:1; stop-color:#D8E0E1"/>
   <stop offset="0.960784" style="stop-opacity:1; stop-color:#C1CFD0"/>
   <stop offset="1" style="stop-opacity:1; stop-color:#A9BCBE"/>
  </linearGradient>
  <linearGradient id="id23" gradientUnits="userSpaceOnUse" x1="57.37" y1="90.61" x2="57.37" y2="44.75">
   <stop offset="0" style="stop-opacity:1; stop-color:#F7F9F9"/>
   <stop offset="0.180392" style="stop-opacity:1; stop-color:#F7F9F9"/>
   <stop offset="0.458824" style="stop-opacity:1; stop-color:#E3E9E9"/>
   <stop offset="0.8" style="stop-opacity:1; stop-color:#C1CED0"/>
   <stop offset="1" style="stop-opacity:1; stop-color:#A9BCBE"/>
   <stop offset="11.7294" style="stop-opacity:1; stop-color:white"/>
   <stop offset="1" style="stop-opacity:1; stop-color:white"/>
  </linearGradient>
  <linearGradient id="id24" gradientUnits="userSpaceOnUse" x1="3.61" y1="96.2" x2="3.61" y2="68.24">
   <stop offset="0" style="stop-opacity:1; stop-color:white"/>
   <stop offset="97.7412" style="stop-opacity:1; stop-color:white"/>
   <stop offset="0.180392" style="stop-opacity:1; stop-color:#F7F9F9"/>
   <stop offset="0.458824" style="stop-opacity:1; stop-color:#E3E9E9"/>
   <stop offset="0.8" style="stop-opacity:1; stop-color:#C1CED0"/>
   <stop offset="1" style="stop-opacity:1; stop-color:#A9BCBE"/>
  </linearGradient>
  <linearGradient id="id25" gradientUnits="userSpaceOnUse" x1="53.99" y1="95.08" x2="53.99" y2="62.64">
   <stop offset="0" style="stop-opacity:1; stop-color:#F7F9F9"/>
   <stop offset="0.180392" style="stop-opacity:1; stop-color:#F7F9F9"/>
   <stop offset="0.458824" style="stop-opacity:1; stop-color:#E3E9E9"/>
   <stop offset="0.8" style="stop-opacity:1; stop-color:#C1CED0"/>
   <stop offset="1" style="stop-opacity:1; stop-color:#A9BCBE"/>
   <stop offset="37.149" style="stop-opacity:1; stop-color:white"/>
   <stop offset="1" style="stop-opacity:1; stop-color:white"/>
  </linearGradient>
  <linearGradient id="id26" gradientUnits="userSpaceOnUse" x1="30.23" y1="93.96" x2="30.23" y2="69.35">
   <stop offset="0" style="stop-opacity:1; stop-color:white"/>
   <stop offset="-125.941" style="stop-opacity:1; stop-color:white"/>
   <stop offset="0.180392" style="stop-opacity:1; stop-color:#F7F9F9"/>
   <stop offset="0.458824" style="stop-opacity:1; stop-color:#E3E9E9"/>
   <stop offset="0.8" style="stop-opacity:1; stop-color:#C1CED0"/>
   <stop offset="1" style="stop-opacity:1; stop-color:#A9BCBE"/>
  </linearGradient>
  <linearGradient id="id27" gradientUnits="userSpaceOnUse" x1="65.71" y1="36.57" x2="52.06" y2="68.01">
   <stop offset="0" style="stop-opacity:1; stop-color:#980704"/>
   <stop offset="0.0509804" style="stop-opacity:1; stop-color:#980704"/>
   <stop offset="0.14902" style="stop-opacity:1; stop-color:#B80503"/>
   <stop offset="0.270588" style="stop-opacity:1; stop-color:#D20302"/>
   <stop offset="0.388235" style="stop-opacity:1; stop-color:#E60201"/>
   <stop offset="0.529412" style="stop-opacity:1; stop-color:#F40100"/>
   <stop offset="0.709804" style="stop-opacity:1; stop-color:#FD0000"/>
   <stop offset="1" style="stop-opacity:1; stop-color:red"/>
   <stop offset="46.1216" style="stop-opacity:1; stop-color:#860805"/>
   <stop offset="1" style="stop-opacity:1; stop-color:#860805"/>
  </linearGradient>
  <linearGradient id="id28" gradientUnits="userSpaceOnUse" x1="55.93" y1="64.88" x2="52.58" y2="51.46">
   <stop offset="0" style="stop-opacity:1; stop-color:#A9BCBE"/>
   <stop offset="1" style="stop-opacity:1; stop-color:#A9BCBE"/>
   <stop offset="103.031" style="stop-opacity:1; stop-color:white"/>
   <stop offset="1" style="stop-opacity:1; stop-color:white"/>
  </linearGradient>
  <linearGradient id="id29" gradientUnits="userSpaceOnUse" x1="20.09" y1="93.96" x2="20.09" y2="69.35">
   <stop offset="0" style="stop-opacity:1; stop-color:white"/>
   <stop offset="96.7412" style="stop-opacity:1; stop-color:white"/>
   <stop offset="0.180392" style="stop-opacity:1; stop-color:#F7F9F9"/>
   <stop offset="0.458824" style="stop-opacity:1; stop-color:#E3E9E9"/>
   <stop offset="0.8" style="stop-opacity:1; stop-color:#C1CED0"/>
   <stop offset="1" style="stop-opacity:1; stop-color:#A9BCBE"/>
  </linearGradient>
  <linearGradient id="id30" gradientUnits="userSpaceOnUse" x1="8.95" y1="64.88" x2="12.3" y2="51.46">
   <stop offset="0" style="stop-opacity:1; stop-color:#A9BCBE"/>
   <stop offset="1" style="stop-opacity:1; stop-color:#A9BCBE"/>
   <stop offset="81.7608" style="stop-opacity:1; stop-color:white"/>
   <stop offset="1" style="stop-opacity:1; stop-color:white"/>
  </linearGradient>
  <linearGradient id="id31" gradientUnits="userSpaceOnUse" x1="32.44" y1="45.74" x2="32.44" y2="70.3">
   <stop offset="0" style="stop-opacity:1; stop-color:white"/>
   <stop offset="58.5333" style="stop-opacity:1; stop-color:white"/>
   <stop offset="0.180392" style="stop-opacity:1; stop-color:#F7F9F9"/>
   <stop offset="0.458824" style="stop-opacity:1; stop-color:#E3E9E9"/>
   <stop offset="0.8" style="stop-opacity:1; stop-color:#C1CED0"/>
   <stop offset="1" style="stop-opacity:1; stop-color:#A9BCBE"/>
  </linearGradient>
  <linearGradient id="id32" gradientUnits="userSpaceOnUse" x1="14.68" y1="92.85" x2="14.68" y2="69.35">
   <stop offset="0" style="stop-opacity:1; stop-color:#F7F9F9"/>
   <stop offset="0.180392" style="stop-opacity:1; stop-color:#F7F9F9"/>
   <stop offset="0.458824" style="stop-opacity:1; stop-color:#E3E9E9"/>
   <stop offset="0.8" style="stop-opacity:1; stop-color:#C1CED0"/>
   <stop offset="1" style="stop-opacity:1; stop-color:#A9BCBE"/>
   <stop offset="17.1882" style="stop-opacity:1; stop-color:white"/>
   <stop offset="1" style="stop-opacity:1; stop-color:white"/>
  </linearGradient>
  <linearGradient id="id33" gradientUnits="userSpaceOnUse" x1="13.42" y1="34.68" x2="4.47" y2="-15.66">
   <stop offset="0" style="stop-opacity:1; stop-color:#980704"/>
   <stop offset="0.0509804" style="stop-opacity:1; stop-color:#980704"/>
   <stop offset="0.14902" style="stop-opacity:1; stop-color:#B80503"/>
   <stop offset="0.270588" style="stop-opacity:1; stop-color:#D20302"/>
   <stop offset="0.388235" style="stop-opacity:1; stop-color:#E60201"/>
   <stop offset="0.529412" style="stop-opacity:1; stop-color:#F40100"/>
   <stop offset="0.709804" style="stop-opacity:1; stop-color:#FD0000"/>
   <stop offset="1" style="stop-opacity:1; stop-color:red"/>
   <stop offset="31.6196" style="stop-opacity:1; stop-color:#860805"/>
   <stop offset="1" style="stop-opacity:1; stop-color:#860805"/>
  </linearGradient>
  <linearGradient id="id34" gradientUnits="userSpaceOnUse" x1="45.35" y1="93.96" x2="45.35" y2="69.35">
   <stop offset="0" style="stop-opacity:1; stop-color:white"/>
   <stop offset="113.741" style="stop-opacity:1; stop-color:white"/>
   <stop offset="0.180392" style="stop-opacity:1; stop-color:#F7F9F9"/>
   <stop offset="0.458824" style="stop-opacity:1; stop-color:#E3E9E9"/>
   <stop offset="0.8" style="stop-opacity:1; stop-color:#C1CED0"/>
   <stop offset="1" style="stop-opacity:1; stop-color:#A9BCBE"/>
  </linearGradient>
  <linearGradient id="id35" gradientUnits="userSpaceOnUse" xlink:href="#id14" x1="32.45" y1="52.27" x2="32.45" y2="60.5">
  </linearGradient>
  <radialGradient id="id36" gradientUnits="userSpaceOnUse" gradientTransform="matrix(1.20138 0.195774 -0.0721533 0.365798 -7 -4)" cx="39.09" cy="5.48" r="10.13" fx="39.09" fy="5.48">
   <stop offset="0" style="stop-opacity:1; stop-color:white"/>
   <stop offset="-67.1098" style="stop-opacity:1; stop-color:white"/>
   <stop offset="1" style="stop-opacity:1; stop-color:white"/>
  </radialGradient>
  <radialGradient id="id37" gradientUnits="userSpaceOnUse" gradientTransform="matrix(1.82907 -0 -0 1.61254 -29 -18)" cx="34.42" cy="29.7" r="33.29" fx="34.42" fy="29.7">
   <stop offset="0" style="stop-opacity:1; stop-color:#E74A3A"/>
   <stop offset="-67.1098" style="stop-opacity:1; stop-color:#E74A3A"/>
   <stop offset="0.290196" style="stop-opacity:1; stop-color:#CA4E2E"/>
   <stop offset="0.631373" style="stop-opacity:1; stop-color:#AE5222"/>
   <stop offset="0.819608" style="stop-opacity:1; stop-color:#A3541E"/>
   <stop offset="0.85098" style="stop-opacity:1; stop-color:#A3541E"/>
   <stop offset="1" style="stop-opacity:1; stop-color:#A3541E"/>
  </radialGradient>
  <radialGradient id="id38" gradientUnits="userSpaceOnUse" gradientTransform="matrix(-1.68118 8.90507E-14 -2.53701E-14 -0.476962 90 88)" cx="33.61" cy="59.63" r="21.8" fx="33.61" fy="59.63">
   <stop offset="0" style="stop-opacity:1; stop-color:#E74A3A"/>
   <stop offset="-67.1098" style="stop-opacity:1; stop-color:#E74A3A"/>
   <stop offset="0.529412" style="stop-opacity:1; stop-color:#C54F2C"/>
   <stop offset="1" style="stop-opacity:1; stop-color:#A3541E"/>
  </radialGradient>
  <radialGradient id="id39" gradientUnits="userSpaceOnUse" gradientTransform="matrix(1.09212 -0.054781 0.0288237 0.483296 -5 24)" cx="45.16" cy="41.84" r="4.64" fx="45.16" fy="41.84">
   <stop offset="0" style="stop-opacity:1; stop-color:#7A4400"/>
   <stop offset="1" style="stop-opacity:1; stop-color:#643800"/>
  </radialGradient>
  <radialGradient id="id40" gradientUnits="userSpaceOnUse" gradientTransform="matrix(1.28821 -0 -0 1.35954 -9 -19)" cx="32.96" cy="52.64" r="32.92" fx="32.96" fy="52.64">
   <stop offset="0" style="stop-opacity:1; stop-color:white"/>
   <stop offset="0.0784314" style="stop-opacity:1; stop-color:white"/>
   <stop offset="0.388235" style="stop-opacity:1; stop-color:#FDFDFD"/>
   <stop offset="0.560784" style="stop-opacity:1; stop-color:#F4F7F7"/>
   <stop offset="0.709804" style="stop-opacity:1; stop-color:#E6ECEC"/>
   <stop offset="0.831373" style="stop-opacity:1; stop-color:#D3DDDE"/>
   <stop offset="0.941176" style="stop-opacity:1; stop-color:#B9C9CA"/>
   <stop offset="1" style="stop-opacity:1; stop-color:#A9BCBE"/>
  </radialGradient>
  <radialGradient id="id41" gradientUnits="userSpaceOnUse" gradientTransform="matrix(751.589 -0 -0 751.429 -46148 -50300)" cx="61.48" cy="67.03" r="0.06" fx="61.48" fy="67.03">
   <stop offset="0" style="stop-opacity:1; stop-color:white"/>
   <stop offset="0.0784314" style="stop-opacity:1; stop-color:white"/>
   <stop offset="0.270588" style="stop-opacity:1; stop-color:#FBFCFC"/>
   <stop offset="0.470588" style="stop-opacity:1; stop-color:#EFF2F3"/>
   <stop offset="0.670588" style="stop-opacity:1; stop-color:#DAE2E3"/>
   <stop offset="0.870588" style="stop-opacity:1; stop-color:#BECCCE"/>
   <stop offset="1" style="stop-opacity:1; stop-color:#A9BCBE"/>
  </radialGradient>
  <radialGradient id="id42" gradientUnits="userSpaceOnUse" gradientTransform="matrix(5.09429 -0 -0 5.10578 -243 -317)" cx="59.47" cy="77.3" r="8.23" fx="59.47" fy="77.3">
   <stop offset="0" style="stop-opacity:1; stop-color:#92A8AB"/>
   <stop offset="0.380392" style="stop-opacity:0.615686; stop-color:#92A8AB"/>
   <stop offset="0.768627" style="stop-opacity:0.227451; stop-color:#9EB3B5"/>
   <stop offset="1" style="stop-opacity:0; stop-color:#A9BCBE"/>
   <stop offset="-109.733" style="stop-opacity:1; stop-color:#8EA5A8"/>
   <stop offset="1" style="stop-opacity:1; stop-color:#8EA5A8"/>
  </radialGradient>
  <radialGradient id="id43" gradientUnits="userSpaceOnUse" gradientTransform="matrix(1.47925 -0 -0 1.47925 -32 -25)" xlink:href="#id41" cx="67.4" cy="52.63" r="0.01" fx="67.4" fy="52.63">
  </radialGradient>
  <radialGradient id="id44" gradientUnits="userSpaceOnUse" gradientTransform="matrix(1.09379 -0 -0 1.02611 -3 -1)" cx="27.25" cy="39.46" r="26.19" fx="27.25" fy="39.46">
   <stop offset="0" style="stop-opacity:1; stop-color:#FFBC47"/>
   <stop offset="1" style="stop-opacity:1; stop-color:#FFBC47"/>
   <stop offset="-109.733" style="stop-opacity:1; stop-color:#FFEA5F"/>
   <stop offset="1" style="stop-opacity:1; stop-color:#FFEA5F"/>
  </radialGradient>
  <radialGradient id="id45" gradientUnits="userSpaceOnUse" gradientTransform="matrix(1.12063 -0 -0 1.06684 -3 -3)" cx="27.25" cy="38.34" r="32.74" fx="27.25" fy="38.34">
   <stop offset="0" style="stop-opacity:1; stop-color:#FFB92E"/>
   <stop offset="1" style="stop-opacity:1; stop-color:#FFB92E"/>
   <stop offset="-109.733" style="stop-opacity:1; stop-color:#FFE030"/>
   <stop offset="1" style="stop-opacity:1; stop-color:#FFE030"/>
  </radialGradient>
  <radialGradient id="id46" gradientUnits="userSpaceOnUse" gradientTransform="matrix(-1.42267 1.2252 -0.994081 -1.01587 180 41)" cx="52.78" cy="52.42" r="6.55" fx="52.78" fy="52.42">
   <stop offset="0" style="stop-opacity:1; stop-color:#FF4C00"/>
   <stop offset="-67.1098" style="stop-opacity:1; stop-color:#FF4C00"/>
   <stop offset="0.14902" style="stop-opacity:1; stop-color:#FF4C00"/>
   <stop offset="0.180392" style="stop-opacity:1; stop-color:#FF4C00"/>
   <stop offset="0.4" style="stop-opacity:1; stop-color:#FB4C0B"/>
   <stop offset="0.780392" style="stop-opacity:1; stop-color:#EF4B27"/>
   <stop offset="1" style="stop-opacity:1; stop-color:#E74A3A"/>
  </radialGradient>
  <radialGradient id="id47" gradientUnits="userSpaceOnUse" gradientTransform="matrix(1.42266 1.22521 -0.994085 1.01587 46 -17)" xlink:href="#id46" cx="13.5" cy="52.42" r="6.55" fx="13.5" fy="52.42">
  </radialGradient>
  <radialGradient id="id48" gradientUnits="userSpaceOnUse" gradientTransform="matrix(0.385759 1.33241 -0.862161 0.249613 50 3)" xlink:href="#id39" cx="21.5" cy="42.34" r="3.33" fx="21.5" fy="42.34">
  </radialGradient>
  <radialGradient id="id49" gradientUnits="userSpaceOnUse" gradientTransform="matrix(1.18472 -0 -0 1.18472 -13 -11)" xlink:href="#id41" cx="68.43" cy="57.65" r="7.94" fx="68.43" fy="57.65">
  </radialGradient>
 </defs>
 <g id="Слой_x0020_1">
  <metadata id="CorelCorpID_0Corel-Layer"/>
  <g id="_2560183613248">
   <path class="fil0" d="M3.4 24.17c0.98,-14.78 13.19,-24.17 29.56,-24.17 16.37,0 44.7,8.48 35.53,58.25l-3.35 -1.09c1.36,-7.47 -2.17,-29.61 -31.98,-29.61l-29.76 -3.38z"/>
   <path class="fil1" d="M6.42 24.53l0.27 0.02 1.4 0.16 8.08 -5.19c-4.61,-5.16 -4.07,-11.2 0.02,-15.47 -6.55,3.62 -11.05,9.52 -12.41,17.13 -0.02,0.18 -0.07,0.35 -0.09,0.53 -0.13,0.81 -0.22,1.64 -0.29,2.46l2.68 0.32 0.34 0.04z"/>
   <path class="fil2" d="M56.17 34.5c8.7,7.16 9.82,17.92 8.95,22.68l3.35 1.09c0.51,-2.75 0.89,-5.39 1.19,-7.89 2.41,-22.07 -7.47,-19.81 -13.49,-15.88z"/>
   <path class="fil3" d="M58.05 33.41l-0.54 2.28c6.94,6.57 8.28,15.52 7.79,20.39l1.54 -1.34c-1.08,-4.27 0.27,-7.54 0.27,-11.05 0,-3.51 -1.48,-8.22 0.06,-10.15 -2.46,-2.44 -6.03,-1.72 -9.12,-0.13z"/>
   <path class="fil4" d="M68.81 68.76c0,0.02 0,0.05 -0.03,0.07 -0.02,0.04 0.07,0.07 0.09,0.02l0.16 -0.36 0.31 0.23c0.05,0.02 0.09,-0.03 0.07,-0.07 -0.02,-0.02 -0.05,-0.05 -0.07,-0.07 -0.06,-0.06 -0.11,-0.13 -0.13,-0.2l0.38 0.25c0.04,0.02 0.09,-0.03 0.04,-0.07 -0.02,-0.02 -0.04,-0.04 -0.06,-0.07 -0.16,-0.15 -0.21,-0.35 -0.16,-0.53 0.16,0.11 0.27,0.29 0.25,0.51 0,0.02 0,0.05 0,0.07 0,0.04 0.06,0.06 0.09,0.02l0.11 -0.38 0.33 0.2c0.02,0.02 0.05,0 0.07,-0.02 0.02,0 0.04,-0.02 0.04,-0.05 0.03,0.03 0.07,0.03 0.07,-0.02l0.09 -0.4 0.38 0.18c0.05,0.02 0.09,-0.05 0.05,-0.07 -0.07,-0.04 -0.12,-0.09 -0.18,-0.13 -0.05,-0.05 -0.09,-0.09 -0.14,-0.14l0.49 0.2c0.03,0.03 0.07,-0.02 0.07,-0.04 0.02,0.02 0.07,0 0.07,-0.02l0.04 -0.41 0.38 0.14c0.05,0.02 0.09,-0.05 0.05,-0.09l0.04 0.02c0.03,0 0.03,0 0.05,0 0.02,0 0.02,-0.02 0.02,-0.04l0 -0.45 0.45 0.11c0.04,0.02 0.06,-0.07 0.02,-0.09 -0.02,0 -0.05,-0.02 -0.07,-0.02 -0.09,-0.05 -0.15,-0.09 -0.2,-0.13l0.45 0.08c0.02,0 0.02,0 0.04,-0.02 0.03,0 0.03,-0.02 0.03,-0.04l-0.05 -0.45 0.45 0.05c0.02,0 0.04,-0.03 0.04,-0.05 0.03,0 0.05,-0.02 0.03,-0.04 0.02,0 0.06,-0.03 0.04,-0.05l-0.09 -0.4 0.4 0.02c0.05,0 0.07,-0.07 0,-0.09 -0.02,0 -0.02,0 -0.04,0 -0.09,-0.02 -0.18,-0.07 -0.23,-0.11l0.43 0c0.04,0 0.04,-0.05 0.04,-0.07 0.03,0 0.07,-0.02 0.05,-0.06l-0.14 -0.41 0.41 -0.02c0.02,0 0.04,-0.02 0.04,-0.02 0.02,-0.02 0.02,-0.07 -0.02,-0.09l-0.02 0c-0.03,0 -0.05,0 -0.09,0 -0.18,-0.02 -0.32,-0.11 -0.38,-0.22 -0.02,-0.05 -0.05,-0.07 -0.07,-0.12 0.18,-0.02 0.38,0.07 0.49,0.25 0.02,0.02 0.02,0.04 0.05,0.07 0.02,0.04 0.09,0 0.06,-0.05l-0.15 -0.36 0.38 -0.06c0.04,0 0.04,-0.09 0,-0.09l-0.02 0c-0.03,0 -0.05,0 -0.09,0 -0.09,0 -0.16,-0.03 -0.23,-0.05l0.45 -0.09c0.04,0 0.04,-0.09 0,-0.09l-0.02 0c-0.03,0 -0.05,0 -0.09,0 -0.23,0 -0.4,-0.11 -0.49,-0.26 0.17,-0.05 0.38,0.02 0.53,0.2 0.02,0.02 0.02,0.04 0.05,0.06 0.04,0.05 0.09,0 0.06,-0.04l-0.2 -0.36 0.38 -0.11c0.03,0 0.05,-0.02 0.03,-0.05 0.02,-0.02 0.02,-0.04 0,-0.06 0.02,0 0.04,-0.05 0.02,-0.07l-0.23 -0.33 0.38 -0.14c0.05,-0.02 0.03,-0.09 -0.02,-0.09l-0.02 0c-0.07,0.02 -0.16,0.02 -0.22,0.05 -0.07,0 -0.14,0 -0.18,0l0.49 -0.21c0.04,-0.02 0.04,-0.06 0,-0.06 0.02,0 0.04,-0.05 0.02,-0.07l-0.27 -0.31 0.38 -0.18c0.05,-0.02 0.03,-0.09 -0.02,-0.09l0.05 -0.02c0.02,-0.03 0.02,-0.05 0.02,-0.07 0,0 0,-0.02 -0.02,-0.02l-0.32 -0.32 0.38 -0.24c0.05,-0.02 0,-0.09 -0.04,-0.07 -0.02,0 -0.05,0.02 -0.07,0.02 -0.09,0.03 -0.16,0.05 -0.24,0.05l0.38 -0.25c0.02,-0.02 0.02,-0.04 0.02,-0.06 0,0 0,-0.03 -0.02,-0.03l-0.36 -0.27 0.36 -0.29c0.02,-0.02 0.02,-0.04 0,-0.06 0.02,-0.03 0,-0.07 -0.03,-0.07 0.03,-0.02 0.03,-0.04 0,-0.07l-0.33 -0.22 0.31 -0.29c0.05,-0.05 0,-0.09 -0.04,-0.07 -0.03,0 -0.03,0.02 -0.05,0.02 -0.07,0.05 -0.16,0.07 -0.24,0.09l0.31 -0.31c0.02,-0.02 0,-0.07 -0.02,-0.07 0.02,-0.02 0.02,-0.04 0,-0.06l-0.36 -0.18 0.27 -0.32c0.02,-0.02 0.02,-0.04 0,-0.06 0,-0.03 -0.05,-0.05 -0.07,-0.03 -0.02,0.03 -0.05,0.05 -0.07,0.07 -0.13,0.11 -0.29,0.14 -0.42,0.14 -0.05,0 -0.09,-0.03 -0.14,-0.05 0,0 0,0 0.03,-0.02l0.02 -0.02c0.11,-0.12 0.29,-0.18 0.49,-0.14 0.02,0 0.07,0.02 0.09,0.02 0.04,0.03 0.07,-0.06 0.02,-0.08l-0.36 -0.16 0.23 -0.31c0.02,-0.05 -0.02,-0.09 -0.07,-0.07 -0.02,0.02 -0.04,0.04 -0.07,0.07 -0.06,0.06 -0.13,0.11 -0.2,0.13l0.27 -0.38c0.02,-0.05 -0.02,-0.09 -0.07,-0.05 -0.02,0.03 -0.04,0.05 -0.06,0.07 -0.16,0.16 -0.36,0.2 -0.54,0.16 0,0 0,-0.02 0.02,-0.02l0.02 -0.03c0.12,-0.13 0.27,-0.22 0.5,-0.2 0.02,0 0.06,0 0.09,0 0.04,0 0.06,-0.06 0.02,-0.09l-0.38 -0.11 0.2 -0.33c0.02,-0.03 0,-0.05 -0.02,-0.07 0,-0.02 -0.03,-0.05 -0.05,-0.05 0.02,-0.02 0.02,-0.06 -0.02,-0.06l-0.4 -0.09 0.18 -0.36c0.02,-0.05 -0.05,-0.09 -0.07,-0.05 -0.05,0.07 -0.09,0.14 -0.14,0.18 -0.04,0.05 -0.08,0.09 -0.13,0.14l0.2 -0.49c0.02,-0.03 -0.02,-0.07 -0.04,-0.07 0.02,-0.02 0,-0.07 -0.03,-0.07l-0.4 -0.04 0.14 -0.38c0.02,-0.05 -0.05,-0.09 -0.09,-0.05l0.02 -0.04c0,-0.02 0,-0.02 0,-0.05 0,-0.02 -0.02,-0.04 -0.05,-0.04l-0.46 0 0.11 -0.43c0.02,-0.04 -0.07,-0.06 -0.09,-0.02 -0.02,0.02 -0.02,0.07 -0.05,0.09 -0.04,0.09 -0.09,0.16 -0.13,0.2l0.09 -0.45c0,-0.02 0,-0.02 0,-0.04 0,-0.02 -0.02,-0.05 -0.05,-0.05l-0.44 0.05 0.04 -0.45c0,-0.02 -0.02,-0.04 -0.04,-0.04 0,-0.02 -0.03,-0.05 -0.05,-0.02 0.02,-0.03 0,-0.07 -0.04,-0.07l-0.41 0.09 0.03 -0.4c0,-0.05 -0.07,-0.07 -0.09,0 0,0.02 0,0.02 0,0.04 -0.03,0.09 -0.07,0.18 -0.11,0.25l0 -0.43c0,-0.04 -0.05,-0.04 -0.07,-0.04 0,-0.03 -0.02,-0.07 -0.05,-0.05l-0.4 0.14 -0.02 -0.41c0,-0.02 -0.02,-0.02 -0.02,-0.04 -0.03,-0.05 -0.09,-0.05 -0.09,0.02l0 0.02c0,0.03 0,0.05 0,0.09 -0.03,0.18 -0.12,0.32 -0.23,0.41 -0.04,0.02 -0.06,0.04 -0.11,0.04 -0.02,-0.18 0.07,-0.38 0.25,-0.49 0.02,-0.02 0.04,-0.02 0.06,-0.05 0.05,-0.02 0,-0.09 -0.04,-0.06l-0.36 0.15 -0.07 -0.4c0,-0.04 -0.08,-0.04 -0.08,0l0 0.02c0,0.02 0,0.05 0,0.09 0,0.09 -0.03,0.16 -0.05,0.25l-0.09 -0.45c0,-0.04 -0.09,-0.04 -0.09,0l0 0.02c0,0.03 0,0.05 0,0.09 0,0.23 -0.11,0.41 -0.29,0.49 -0.04,-0.17 0.02,-0.38 0.2,-0.51 0.02,-0.02 0.05,-0.04 0.07,-0.04 0.04,-0.05 0,-0.09 -0.05,-0.07l-0.33 0.2 -0.11 -0.38c0,-0.02 -0.02,-0.05 -0.05,-0.02 -0.02,-0.03 -0.04,-0.03 -0.06,0 0,-0.03 -0.05,-0.05 -0.07,-0.03l-0.34 0.23 -0.13 -0.38c-0.02,-0.05 -0.09,-0.02 -0.09,0.02l0 0.02c0.02,0.07 0.02,0.16 0.04,0.23 0,0.06 0,0.13 0,0.18l-0.2 -0.5c-0.02,-0.04 -0.04,-0.02 -0.06,-0.02 0,-0.02 -0.05,-0.04 -0.07,-0.02l-0.31 0.27 -0.18 -0.36c-0.03,-0.05 -0.09,-0.02 -0.09,0.02l-0.03 -0.04c0,-0.03 -0.02,-0.03 -0.04,-0.03 -0.02,0 -0.02,0 -0.04,0l-0.32 0.32 -0.24 -0.38c-0.03,-0.05 -0.09,0 -0.07,0.04 0,0.02 0.02,0.05 0.02,0.07 0.02,0.09 0.05,0.16 0.05,0.25l-0.25 -0.38c-0.02,-0.03 -0.02,-0.03 -0.04,-0.03 -0.03,0 -0.03,0 -0.05,0.03l-0.29 0.35 -0.29 -0.35c-0.02,-0.03 -0.04,-0.03 -0.07,0 -0.02,-0.03 -0.04,0 -0.06,0.02 -0.03,-0.02 -0.05,-0.02 -0.07,0l-0.23 0.33 -0.29 -0.29c-0.04,-0.04 -0.09,0 -0.06,0.05 0,0.02 0.02,0.02 0.02,0.04 0.04,0.09 0.09,0.16 0.09,0.25l-0.31 -0.32c-0.03,-0.02 -0.07,0 -0.07,0.03 -0.02,-0.03 -0.07,-0.03 -0.07,0l-0.18 0.35 -0.31 -0.26c-0.02,-0.03 -0.05,-0.03 -0.05,0 -0.04,0 -0.06,0.04 -0.04,0.06 0.02,0.03 0.02,0.05 0.04,0.07 0.14,0.16 0.16,0.34 0.12,0.51 0,0.03 -0.03,0.05 -0.03,0.05 -0.13,-0.11 -0.22,-0.31 -0.17,-0.54 0,-0.02 0.02,-0.04 0.02,-0.09 0.02,-0.04 -0.07,-0.06 -0.09,-0.02l-0.16 0.36 -0.31 -0.22c-0.05,-0.03 -0.09,0.02 -0.07,0.06 0.02,0.02 0.05,0.05 0.05,0.05 0.06,0.06 0.11,0.13 0.13,0.2l-0.38 -0.25c-0.04,-0.02 -0.09,0.02 -0.04,0.07 0.02,0.02 0.04,0.04 0.06,0.04 0.18,0.16 0.2,0.36 0.16,0.54 -0.16,-0.11 -0.25,-0.27 -0.22,-0.51 0,-0.03 0,-0.05 0,-0.09 0,-0.05 -0.07,-0.07 -0.09,-0.03l-0.12 0.38 -0.33 -0.2c-0.02,-0.02 -0.05,0 -0.07,0.03 -0.02,0 -0.04,0.02 -0.04,0.04 -0.03,-0.02 -0.07,0 -0.07,0.02l-0.07 0.41 -0.38 -0.18c-0.04,-0.03 -0.09,0.04 -0.04,0.06 0.07,0.05 0.13,0.09 0.18,0.14 0.04,0.04 0.09,0.09 0.13,0.13l-0.49 -0.2c-0.05,-0.02 -0.07,0.02 -0.07,0.05 -0.02,-0.03 -0.06,0 -0.06,0.04l-0.05 0.4 -0.38 -0.13c-0.04,-0.02 -0.09,0.04 -0.04,0.09l-0.07 -0.02c-0.02,0 -0.05,0 -0.05,0.02 -0.02,0 -0.02,0.02 -0.02,0.04l0 0.45 -0.45 -0.11c-0.04,-0.02 -0.06,0.07 -0.02,0.09 0.02,0 0.05,0.02 0.07,0.02 0.09,0.04 0.16,0.09 0.2,0.13l-0.45 -0.09c-0.02,0 -0.04,0 -0.04,0.03 -0.02,0 -0.02,0.02 -0.02,0.04l0.04 0.45 -0.45 -0.05c-0.02,0 -0.04,0.03 -0.04,0.05 -0.02,0 -0.05,0.04 -0.02,0.07 -0.03,0 -0.07,0.02 -0.05,0.04l0.09 0.4 -0.4 -0.02c-0.05,0 -0.07,0.07 0,0.09 0.02,0 0.02,0 0.04,0 0.09,0.02 0.16,0.07 0.23,0.11l-0.43 0c-0.04,0 -0.04,0.05 -0.04,0.07 -0.03,0 -0.07,0.02 -0.05,0.07l0.14 0.38 -0.41 0.02c-0.02,0 -0.04,0.02 -0.04,0.04 -0.02,0.03 -0.02,0.07 0.02,0.09l0.02 0c0.03,0 0.05,0 0.07,0 0.22,0.03 0.38,0.16 0.45,0.32l0 0.02c-0.18,0.02 -0.38,-0.07 -0.49,-0.25 -0.03,-0.02 -0.03,-0.04 -0.05,-0.06 -0.02,-0.05 -0.09,0 -0.07,0.04l0.16 0.36 -0.4 0.07c-0.05,0 -0.05,0.08 0,0.08l0.02 0c0.02,0 0.05,0 0.07,0 0.09,0 0.15,0.03 0.24,0.05l-0.44 0.09c-0.05,0 -0.05,0.09 0,0.09l0.02 0c0.02,0 0.04,0 0.07,0 0.22,0 0.4,0.11 0.49,0.29 -0.18,0.04 -0.38,-0.02 -0.54,-0.2 -0.02,-0.02 -0.02,-0.05 -0.04,-0.07 -0.05,-0.04 -0.09,0 -0.07,0.05l0.2 0.33 -0.38 0.11c-0.02,0 -0.04,0.02 -0.02,0.05 -0.02,0.02 -0.02,0.04 0,0.06 -0.02,0 -0.05,0.05 -0.02,0.07l0.22 0.34 -0.38 0.13c-0.04,0.02 -0.02,0.09 0.02,0.09l0.02 0c0.07,-0.02 0.16,-0.02 0.23,-0.04 0.07,0 0.11,0 0.18,0l-0.49 0.2c-0.05,0.02 -0.03,0.06 0,0.06 -0.03,0 -0.05,0.05 -0.03,0.07l0.27 0.31 -0.36 0.18c-0.04,0.03 -0.02,0.09 0.03,0.09l-0.07 0.02c-0.02,0 -0.02,0.03 -0.02,0.05 0,0.02 0,0.02 0,0.04l0.31 0.32 -0.38 0.24c-0.05,0.03 0,0.09 0.04,0.07 0.03,0 0.05,-0.02 0.07,-0.02 0.09,-0.02 0.16,-0.05 0.25,-0.05l-0.38 0.25c-0.03,0.02 -0.03,0.02 -0.03,0.04 0,0.03 0,0.03 0.03,0.05l0.35 0.29 -0.35 0.29c-0.03,0.02 -0.03,0.04 0,0.07 -0.03,0.02 0,0.04 0.02,0.06 -0.02,0.03 -0.05,0.05 0,0.07l0.33 0.22 -0.29 0.27c-0.04,0.05 0,0.09 0.05,0.07 0.02,0 0.02,-0.02 0.04,-0.02 0.07,-0.05 0.16,-0.07 0.25,-0.09l-0.31 0.31c-0.03,0.02 0,0.07 0.02,0.07 -0.02,0.02 -0.02,0.07 0,0.07l0.36 0.17 -0.27 0.32c-0.02,0.02 -0.02,0.04 0,0.04 0,0.05 0.04,0.07 0.07,0.05 0.02,-0.03 0.04,-0.03 0.06,-0.05 0.18,-0.13 0.36,-0.15 0.54,-0.09 0,0 0,0 0.02,0 -0.11,0.14 -0.31,0.23 -0.54,0.18 -0.02,0 -0.04,0 -0.06,-0.02 -0.05,-0.02 -0.07,0.07 -0.02,0.09l0.35 0.16 -0.22 0.31c-0.02,0.04 0.02,0.09 0.07,0.07 0.02,-0.03 0.04,-0.05 0.04,-0.05 0.07,-0.07 0.14,-0.11 0.2,-0.13l-0.24 0.38c-0.03,0.04 0.02,0.09 0.06,0.04 0.03,-0.02 0.05,-0.04 0.05,-0.07 0.15,-0.15 0.36,-0.2 0.53,-0.15 -0.11,0.15 -0.26,0.27 -0.51,0.24 -0.02,0 -0.04,0 -0.07,0 -0.04,0 -0.06,0.07 -0.02,0.09l0.38 0.12 -0.2 0.33c-0.02,0.02 0,0.05 0.02,0.07 0,0.02 0.02,0.04 0.05,0.04 -0.03,0.02 -0.03,0.07 0.02,0.07l0.4 0.07 -0.18 0.38c-0.02,0.04 0.05,0.09 0.07,0.04 0.04,-0.07 0.09,-0.11 0.13,-0.18 0.05,-0.04 0.09,-0.09 0.14,-0.13l-0.2 0.49c-0.03,0.05 0.02,0.07 0.04,0.07 -0.02,0.02 0,0.06 0.02,0.06l0.41 0.05 -0.14 0.38c-0.02,0.04 0.05,0.09 0.09,0.04l-0.02 0.07c0,0.02 0,0.05 0.02,0.05 0,0.02 0.02,0.02 0.05,0.02l0.44 0 -0.11 0.45c-0.02,0.04 0.07,0.06 0.09,0.02 0,-0.02 0.02,-0.05 0.02,-0.07 0.05,-0.09 0.09,-0.16 0.14,-0.2l-0.09 0.45c0,0.02 0,0.04 0.02,0.04 0,0.02 0.02,0.02 0.05,0.02l0.44 -0.04 -0.04 0.45c0,0.02 0.02,0.04 0.04,0.04 0,0.02 0.05,0.05 0.07,0.02 0,0.03 0.02,0.07 0.04,0.07l0.41 -0.09 -0.03 0.4c0,0.05 0.07,0.07 0.09,0 0,-0.02 0,-0.02 0,-0.04 0.03,-0.09 0.07,-0.16 0.12,-0.22l0 0.42c0,0.04 0.04,0.04 0.06,0.04 0,0.03 0.03,0.07 0.07,0.05l0.38 -0.13 0.02 0.4c0,0.02 0.03,0.04 0.05,0.04 0.02,0.03 0.06,0.03 0.09,-0.02l0 -0.02c0,-0.02 0,-0.05 0,-0.07 0.02,-0.22 0.13,-0.36 0.29,-0.45 0.02,0 0.02,0 0.04,-0.02 0.02,0.18 -0.04,0.38 -0.24,0.52 -0.03,0.02 -0.05,0.02 -0.07,0.04 -0.05,0.02 0,0.09 0.04,0.07l0.36 -0.16 0.07 0.38c0,0.05 0.09,0.05 0.09,0l0 -0.02c0,-0.02 0,-0.05 0,-0.09 0,-0.09 0.02,-0.16 0.04,-0.25l0.09 0.45c0,0.05 0.09,0.05 0.09,0l0 -0.02c0,-0.02 0,-0.05 0,-0.09 0,-0.22 0.11,-0.4 0.27,-0.49 0.05,0.18 -0.02,0.38 -0.2,0.53 -0.02,0.03 -0.05,0.03 -0.07,0.05 -0.04,0.04 0,0.09 0.05,0.07l0.33 -0.21 0.11 0.38c0,0.03 0.03,0.05 0.05,0.03 0.02,0.02 0.04,0.02 0.07,0 0,0.02 0.04,0.04 0.06,0.02l0.34 -0.22 0.13 0.38c0.02,0.04 0.09,0.02 0.09,-0.03l0 -0.02c-0.02,-0.07 -0.02,-0.16 -0.04,-0.22 0,-0.07 0,-0.14 0,-0.18l0.2 0.49c0.02,0.04 0.04,0.02 0.07,0.02 0,0.02 0.04,0.05 0.06,0.02l0.32 -0.26 0.17 0.35c0.03,0.05 0.09,0.03 0.09,-0.02l0.03 0.05c0,0.02 0.02,0.02 0.04,0.02 0.02,0 0.02,0 0.05,0l0.31 -0.31 0.24 0.38c0.03,0.04 0.09,0 0.07,-0.05 0,-0.02 -0.02,-0.04 -0.02,-0.07 -0.02,-0.09 -0.05,-0.15 -0.05,-0.24l0.25 0.38c0.02,0.02 0.02,0.02 0.05,0.02 0.02,0 0.02,0 0.04,-0.02l0.29 -0.36 0.29 0.36c0.02,0.02 0.05,0.02 0.07,0 0.02,0.02 0.04,0 0.07,-0.02 0.02,0.02 0.04,0.04 0.06,0l0.23 -0.34 0.26 0.29c0.05,0.05 0.09,0 0.07,-0.04 0,-0.03 -0.02,-0.03 -0.02,-0.05 -0.05,-0.09 -0.09,-0.15 -0.09,-0.24l0.31 0.31c0.03,0.02 0.07,0 0.07,-0.02 0.02,0.02 0.07,0.02 0.07,0l0.18 -0.36 0.31 0.27c0.02,0.02 0.04,0.02 0.04,0 0.05,0 0.07,-0.05 0.05,-0.07 -0.02,-0.02 -0.05,-0.04 -0.05,-0.07 -0.11,-0.13 -0.15,-0.29 -0.11,-0.44 0,-0.05 0.02,-0.07 0.05,-0.12 0.13,0.05 0.22,0.23 0.18,0.45zm1.47 -0.49c0,0.02 0,0.02 0,0.04 -0.07,-0.04 -0.11,-0.09 -0.18,-0.13 -0.04,-0.04 -0.06,-0.07 -0.11,-0.11 -0.04,-0.09 -0.04,-0.2 -0.02,-0.29 0.18,0.06 0.31,0.24 0.31,0.49zm0.78 -0.43c0,0.03 0,0.03 0,0.05 -0.06,-0.05 -0.13,-0.09 -0.17,-0.11 -0.16,-0.11 -0.23,-0.27 -0.25,-0.43 0.2,0.05 0.4,0.23 0.42,0.49zm0.59 -0.42c0,0.02 0,0.02 0,0 -0.03,0.02 -0.03,0.02 0,0 -0.21,-0.09 -0.29,-0.25 -0.32,-0.4 0.14,0.06 0.27,0.2 0.32,0.4zm0.69 -0.54l-0.02 0c-0.2,-0.06 -0.29,-0.22 -0.34,-0.38 0.16,0.05 0.29,0.16 0.36,0.38 -0.02,-0.02 0,-0.02 0,0zm0.47 -0.69c0.02,0.07 0.07,0.13 0.09,0.2 -0.02,0 -0.02,0 -0.05,-0.02 -0.22,-0.07 -0.35,-0.25 -0.38,-0.43 0,0 0,0 0.03,0l0.17 0c0.03,0.09 0.09,0.16 0.14,0.25zm0.54 -0.69c0.04,0.06 0.06,0.13 0.11,0.2 -0.03,0 -0.03,0 -0.05,0 -0.24,-0.05 -0.38,-0.2 -0.42,-0.38 0,0 0,0 0.02,0l0.18 -0.02c0.04,0.04 0.11,0.11 0.16,0.2zm1.14 -1.84l0.02 0.03c-0.07,0 -0.16,0.02 -0.23,0.02 -0.04,0 -0.11,0 -0.15,0 -0.09,-0.05 -0.18,-0.11 -0.23,-0.2 0.21,-0.05 0.43,-0.03 0.59,0.15zm0.26 -0.85c0.03,0 0.03,0.03 0.05,0.03 -0.07,0.02 -0.14,0.02 -0.22,0.04 -0.18,0.04 -0.36,-0.02 -0.47,-0.13 0.17,-0.12 0.42,-0.12 0.64,0.06zm0.09 -0.71l0.03 0.02 -0.03 0c-0.2,0.07 -0.38,0.02 -0.51,-0.09 0.16,-0.07 0.36,-0.04 0.51,0.07zm0.09 -0.9c0,0 0.03,0 0.03,0.03l-0.03 0c-0.2,0.08 -0.38,0.04 -0.51,-0.05 0.16,-0.07 0.33,-0.07 0.51,0.02zm-0.13 -0.8c0.07,0.02 0.13,0.07 0.2,0.09 -0.02,0 -0.02,0.02 -0.04,0.02 -0.21,0.11 -0.43,0.09 -0.59,-0.02 0,0 0.03,0 0.03,-0.02l0.13 -0.12c0.09,0 0.18,0.03 0.27,0.05zm-0.09 -0.87c0.07,0.02 0.13,0.04 0.22,0.06 -0.02,0 -0.02,0.03 -0.04,0.03 -0.2,0.13 -0.4,0.13 -0.56,0.04 0,0 0,-0.02 0.02,-0.02l0.11 -0.14c0.05,0 0.14,0 0.25,0.03zm-0.52 -2.11c0.03,0 0.05,0 0.05,0 -0.05,0.07 -0.09,0.12 -0.13,0.18 -0.05,0.05 -0.09,0.09 -0.14,0.11 -0.09,0.03 -0.16,0.05 -0.24,0.03l-0.03 0 -0.02 0c0.11,-0.18 0.27,-0.32 0.51,-0.32zm-0.42 -0.78c0.02,0 0.04,0 0.04,0 -0.04,0.07 -0.08,0.14 -0.13,0.18 -0.11,0.16 -0.27,0.22 -0.42,0.25 0.09,-0.23 0.24,-0.41 0.51,-0.43zm-0.4 -0.56c-0.09,0.18 -0.25,0.27 -0.43,0.29 0.07,-0.15 0.2,-0.29 0.41,-0.31l0.02 0c0.02,0 0.02,0.02 0,0.02zm-0.56 -0.69c-0.07,0.2 -0.23,0.29 -0.38,0.33 0.04,-0.15 0.18,-0.29 0.38,-0.35l0.02 0c-0.02,0 -0.02,0.02 -0.02,0.02zm-0.67 -0.49c0.06,-0.03 0.13,-0.07 0.2,-0.09 0,0.02 0,0.02 -0.02,0.04 -0.07,0.23 -0.25,0.36 -0.43,0.38l0 -0.18c0.09,-0.06 0.16,-0.11 0.25,-0.15zm-0.7 -0.56c0.07,-0.05 0.14,-0.07 0.21,-0.11 0,0.02 0,0.02 0,0.04 -0.05,0.25 -0.21,0.38 -0.38,0.43l-0.03 -0.18c0.05,-0.05 0.12,-0.11 0.2,-0.18zm-1.81 -1.16c0.03,0.06 0.03,0.15 0.03,0.22 0,0.04 0,0.11 0,0.16 -0.05,0.08 -0.12,0.17 -0.21,0.22 -0.06,-0.18 -0.04,-0.4 0.14,-0.58 0.02,0 0.04,-0.02 0.04,-0.02zm-0.85 -0.27c0.03,0.06 0.05,0.15 0.05,0.22 0.04,0.2 -0.02,0.36 -0.14,0.47 -0.11,-0.18 -0.13,-0.42 0.05,-0.65 0.02,-0.02 0.02,-0.02 0.04,-0.04zm-0.73 -0.07c0,0 0.02,-0.02 0,0 0.02,-0.02 0.02,0 0,0 0.08,0.2 0.04,0.38 -0.07,0.49 -0.05,-0.15 -0.05,-0.33 0.07,-0.49zm-0.88 -0.11c0,0 0,0.02 0,0 0.09,0.2 0.07,0.38 -0.02,0.53 -0.09,-0.15 -0.09,-0.33 0.02,-0.53 0,0.02 0,0 0,0zm-0.82 0.15c0.02,-0.06 0.06,-0.13 0.09,-0.2 0,0.03 0.02,0.03 0.02,0.05 0.11,0.2 0.09,0.42 -0.02,0.58 0,0 0,0 -0.03,-0.02l-0.11 -0.14c0,-0.09 0.02,-0.18 0.05,-0.27zm-0.88 0.09c0.03,-0.06 0.05,-0.13 0.07,-0.22 0,0.02 0.02,0.02 0.02,0.05 0.14,0.2 0.14,0.4 0.05,0.58 0,0 0,0 -0.02,0l-0.14 -0.12c0,-0.08 0,-0.17 0.02,-0.29zm-2.1 0.52c0,-0.02 0,-0.02 0,-0.05 0.07,0.05 0.11,0.09 0.18,0.14 0.05,0.04 0.07,0.06 0.09,0.11 0.05,0.09 0.05,0.2 0.02,0.31 -0.15,-0.11 -0.29,-0.27 -0.29,-0.51zm-0.78 0.4c0,-0.02 0,-0.02 0,-0.04 0.07,0.04 0.13,0.09 0.18,0.13 0.15,0.11 0.22,0.27 0.24,0.43 -0.22,-0.07 -0.4,-0.23 -0.42,-0.52zm-0.58 0.43c0,-0.03 0,-0.03 0,0 0.2,0.09 0.29,0.24 0.31,0.4 -0.16,-0.07 -0.27,-0.2 -0.31,-0.4zm-0.7 0.55c0.21,0.09 0.32,0.23 0.36,0.38 -0.15,-0.04 -0.29,-0.17 -0.36,-0.38zm-0.46 0.68c-0.03,-0.07 -0.07,-0.14 -0.09,-0.21 0.02,0 0.02,0 0.04,0.03 0.22,0.06 0.36,0.24 0.38,0.42l-0.02 0 -0.18 0c-0.05,-0.07 -0.09,-0.15 -0.13,-0.24zm-0.56 0.69c-0.05,-0.07 -0.07,-0.14 -0.12,-0.2 0.03,0 0.03,0 0.05,0 0.22,0.04 0.38,0.2 0.42,0.38 0,0 0,0 -0.02,0l-0.18 0.02c-0.04,-0.04 -0.09,-0.11 -0.15,-0.2zm-1.14 1.85c0,-0.02 -0.03,-0.02 -0.03,-0.04 0.07,0 0.16,-0.02 0.23,-0.02 0.04,0 0.09,0 0.13,0 0.09,0.04 0.18,0.11 0.25,0.2 -0.18,0.07 -0.41,0.04 -0.58,-0.14zm-0.25 0.85c-0.02,0 -0.02,-0.02 -0.04,-0.02 0.06,-0.02 0.13,-0.02 0.22,-0.04 0.2,-0.05 0.36,0.02 0.47,0.13 -0.18,0.09 -0.45,0.11 -0.65,-0.07zm-0.11 0.7c0,0 -0.02,0 0,0 -0.02,0 0,0 0,0 0.2,-0.09 0.38,-0.02 0.49,0.06 -0.16,0.07 -0.34,0.05 -0.49,-0.06zm-0.09 0.89c0,0 -0.02,0 0,0 -0.02,-0.02 0,-0.02 0,0 0.18,-0.11 0.36,-0.06 0.51,0.02 -0.15,0.07 -0.33,0.07 -0.51,-0.02zm0.13 0.81c-0.06,-0.03 -0.13,-0.07 -0.2,-0.09 0.02,0 0.02,-0.02 0.05,-0.02 0.2,-0.12 0.42,-0.09 0.58,0.02 0,0 0,0 -0.02,0.02l-0.14 0.13c-0.09,-0.02 -0.18,-0.02 -0.27,-0.06zm0.11 0.87c-0.06,-0.02 -0.13,-0.05 -0.22,-0.07 0.02,0 0.02,-0.02 0.05,-0.02 0.2,-0.13 0.4,-0.13 0.58,-0.04 0,0 0,0 0,0.02l-0.11 0.13c-0.12,0 -0.21,0 -0.3,-0.02zm0.5 2.12c-0.03,0 -0.03,0 -0.05,0l-0.02 0c0.04,-0.06 0.09,-0.11 0.13,-0.18 0.05,-0.04 0.07,-0.06 0.12,-0.08 0.11,-0.05 0.2,-0.05 0.31,-0.03 -0.07,0.16 -0.25,0.29 -0.49,0.29zm0.42 0.79c-0.02,0 -0.02,0 -0.04,0l-0.03 0c0.05,-0.07 0.09,-0.14 0.12,-0.18 0.11,-0.16 0.26,-0.23 0.42,-0.25 -0.02,0.2 -0.2,0.4 -0.47,0.43zm0.81 0.26c-0.07,0.16 -0.2,0.27 -0.41,0.32l-0.02 0 0 -0.02c0.11,-0.18 0.27,-0.27 0.43,-0.3zm0.53 0.65c-0.04,0.16 -0.18,0.29 -0.35,0.36l-0.03 0 0 -0.02c0.07,-0.2 0.23,-0.31 0.38,-0.34zm0.29 0.83c-0.06,0.02 -0.13,0.07 -0.2,0.09 0,-0.02 0,-0.02 0.02,-0.04 0.07,-0.23 0.25,-0.36 0.43,-0.38 0,0 0,0 0,0.02l0 0.18c-0.07,0.02 -0.13,0.09 -0.25,0.13zm0.7 0.54c-0.07,0.04 -0.14,0.06 -0.2,0.11 0,-0.02 0,-0.02 0,-0.05 0.04,-0.24 0.2,-0.38 0.38,-0.42 0,0 0,0 0,0.02l0.02 0.18c-0.05,0.05 -0.11,0.11 -0.2,0.16zm1.81 1.18c-0.02,-0.09 -0.02,-0.15 -0.02,-0.22 0,-0.05 0,-0.11 0,-0.16 0.04,-0.09 0.11,-0.18 0.2,-0.24 0.06,0.18 0.04,0.4 -0.14,0.58 -0.02,0.02 -0.02,0.02 -0.04,0.04zm0.87 0.25c-0.02,0.02 -0.02,0.02 0,0 -0.02,-0.07 -0.04,-0.16 -0.04,-0.23 -0.05,-0.2 0.02,-0.35 0.13,-0.46 0.11,0.17 0.13,0.44 -0.05,0.64 -0.02,0.03 -0.04,0.05 -0.04,0.05zm0.72 0.09c-0.09,-0.2 -0.03,-0.38 0.06,-0.52 0.07,0.16 0.07,0.34 -0.06,0.52zm0.89 0.09c-0.02,0 -0.02,0 0,0 -0.09,-0.2 -0.07,-0.38 0.02,-0.54 0.07,0.16 0.07,0.34 -0.02,0.54zm0.81 -0.16c-0.03,0.07 -0.07,0.13 -0.09,0.2 0,-0.02 -0.03,-0.02 -0.03,-0.04 -0.11,-0.2 -0.09,-0.43 0.03,-0.58 0,0 0,0 0,0.02l0.11 0.13c0.02,0.09 0.02,0.18 -0.02,0.27zm0.87 -0.09c-0.03,0.07 -0.05,0.14 -0.07,0.22 0,-0.02 -0.02,-0.02 -0.02,-0.04 -0.14,-0.2 -0.14,-0.4 -0.05,-0.58l0.14 0.11c0.02,0.11 0.02,0.2 0,0.29z"/>
   <path class="fil5" d="M65.88 43.36c0,18.09 -14.65,32.74 -32.74,32.74 -18.09,0 -32.74,-14.65 -32.74,-32.74 0,-7.09 2.24,-13.64 6.06,-18.99 5.95,-8.31 15.68,-4.65 26.68,-4.65 10.96,0 20.66,-3.71 26.61,4.59 3.87,5.34 6.13,11.94 6.13,19.05z"/>
   <path class="fil6" style="mask:url(#id0)" d="M65.88 43.36c0,18.09 -14.65,32.74 -32.74,32.74 -18.09,0 -32.74,-14.65 -32.74,-32.74 0,-7.09 2.24,-13.64 6.06,-18.99 5.95,-8.31 15.68,-2.84 26.68,-2.84 10.96,0 20.66,-5.52 26.61,2.75 3.87,5.37 6.13,11.97 6.13,19.08z"/>
   <path class="fil7" style="mask:url(#id2)" d="M65.88 43.36c0,18.09 -14.65,32.74 -32.74,32.74 -18.09,0 -32.74,-14.65 -32.74,-32.74 0,-7.09 2.24,-13.64 6.06,-18.99 5.95,-8.31 15.68,-2.84 26.68,-2.84 10.96,0 20.66,-5.52 26.61,2.75 3.87,5.37 6.13,11.97 6.13,19.08z"/>
   <path class="fil8" style="mask:url(#id4)" d="M0.4 43.36c0,18.09 14.65,32.74 32.74,32.74 18.09,0 32.74,-14.67 32.74,-32.74 0,-7.09 -2.24,-13.64 -6.06,-18.99 -5.93,-8.31 -15.68,-2.84 -26.68,-2.84 -10.96,0 -20.66,-5.52 -26.61,2.75 -3.85,5.37 -6.13,11.97 -6.13,19.08z"/>
   <path class="fil9" style="mask:url(#id6)" d="M67.71 31.48c-0.2,-1.29 -1.61,-3.24 -2.26,-4.09 -0.07,-0.13 -0.13,-0.27 -0.22,-0.38 1.25,0.41 2.06,0.9 2.06,0.9 -1.28,-1.66 -3.81,-3.04 -3.81,-3.04 -1.43,-3.13 -3.06,-3.54 -3.06,-3.54 -2.06,0.32 -5.12,-0.53 -5.12,-0.53 -1.45,-0.45 -0.6,-1.32 -0.6,-1.32 -1.86,-0.72 -5.95,0 -5.95,0 0,-0.03 0,-0.03 0,-0.05 0.2,-0.87 1.94,-1.9 1.94,-1.9 -2.97,0.96 -6.55,1.45 -6.55,1.45 -1.54,-0.55 -1.23,-1.63 -1.23,-1.63 0,0 -4.92,1.66 -7,1.17 -2.1,-0.5 -0.78,-1.95 -0.78,-1.95 -1.79,1.45 -7.27,2.17 -7.27,2.17 -0.94,-0.45 -0.96,-2.24 -0.96,-2.24 -0.27,1.32 -3.91,2.53 -3.91,2.53 -4.36,-0.27 -7.52,-1.07 -7.52,-1.07 1.73,0.85 1.03,1.72 0.09,2.03 -0.22,0.05 -0.42,0.09 -0.64,0.11 -1.15,0.05 -1.46,-0.65 -1.46,-0.65 -0.09,0.27 -0.42,0.72 -0.89,1.19 -0.96,0.25 -1.88,0.49 -2.71,0.78 0.25,-1.05 0.69,-1.63 0.69,-1.63 -1.52,0.6 -3.84,2.66 -4.45,3.22 -0.06,0.02 -0.11,0.04 -0.17,0.07 -0.72,-0.07 -0.94,-0.79 -0.94,-0.79 0,0 -1.17,1.28 -2.33,3.18 0,0 -2.03,10.73 -1.41,10.91 -0.58,0.56 2.57,6.51 2.57,6.51 0,0 -0.02,-1.03 0.25,-2.62 0.36,-2.08 1.48,-3.91 3.04,-5.32 0.49,-0.42 0.98,-1.05 1.32,-1.94 0.11,-0.05 2.08,-0.68 3.35,0.69 0,0 1.12,-1.48 0.83,-2.17 0,0 0,0 0.02,0 0.23,-0.05 2.98,-0.69 4.19,-0.25 0,0 0.17,-0.38 -0.5,-0.69 0.29,-0.07 0.59,-0.11 0.88,-0.18 1.14,-0.18 3.08,-0.31 4.11,0.69 0,0 1.12,-1.36 3.67,-1.63 0.29,-0.02 0.58,-0.02 0.87,-0.04 2.3,0 3.06,2.05 3.06,2.05 0,0 0.88,-1.25 0.16,-2.1 0,0 3.64,-0.33 6.6,1.34 0,0 0.56,-0.62 0.31,-1.18 2.26,0.02 3.04,1.01 2.64,1.83 0,0 3.91,-1.54 7.33,-1.23 2.15,0.29 3.63,1.1 3.87,2.13 0,0 1.01,-0.56 0.9,-1.41 0.64,0.11 1.31,0.24 1.94,0.38 0.96,0.36 0.76,1.52 3.4,2.55 0,0 -1.32,-1.16 -0.36,-1.81 0.18,0.06 4.94,1.96 6.24,10.82 0.58,0.47 0.63,-5.32 0.63,-5.32 0,0 3.78,-3.58 3.78,-5.46 0,-0.54 -0.03,-1.07 -0.12,-1.65 0.05,0.02 0.07,0.04 0.12,0.06 0.6,0.45 1.36,1.05 1.36,1.05z"/>
   <path class="fil10" d="M22.45 47c1.74,0 3.15,-2.13 3.15,-4.76 0,-2.63 -1.41,-4.76 -3.15,-4.76 -1.74,0 -3.15,2.13 -3.15,4.76 0,2.63 1.41,4.76 3.15,4.76z"/>
   <path class="fil11" d="M22.45 39.09c1.36,0 2.53,1.18 3.15,2.93 -0.04,-2.57 -1.43,-4.65 -3.15,-4.65 -1.72,0 -3.11,2.08 -3.15,4.65 0.62,-1.75 1.81,-2.93 3.15,-2.93z"/>
   <path class="fil12" d="M23.99 28.44c-0.51,-1.2 -2.14,-1.4 -4.38,-0.42 -1.9,0.83 -5.63,3.67 -6.93,8.61 -0.25,0.91 0.74,0.94 1.07,0.27 1.12,-2.26 5.03,-6.24 8.92,-7.43 1.57,-0.49 1.32,-1.03 1.32,-1.03z"/>
   <path class="fil13" d="M39.47 32.65c-0.14,-1.32 1.18,-2.26 3.62,-2.53 2.06,-0.22 6.71,0.45 10.24,4.14 0.65,0.67 -0.2,1.18 -0.8,0.76 -2.08,-1.43 -7.45,-3 -11.41,-2.15 -1.59,0.36 -1.65,-0.22 -1.65,-0.22z"/>
   <path class="fil14" style="mask:url(#id8)" d="M15.45 61.99c0,0 -0.15,-1.37 0.9,-1.41 4.04,-0.14 8.94,-2.44 11.18,-2.44 2.37,0 2.81,0.47 5.43,0.47 2.62,0 3.06,-0.47 5.43,-0.47 2.24,0 7.09,2.28 11.14,2.44 1.05,0.04 0.92,1.43 0.92,1.43l4.96 -5.97 -13.21 -3.45 -16.69 -0.51 -7.51 4.96 -6.19 0.7 3.64 4.25z"/>
   <path class="fil15" d="M44.88 39.15c0,0 4.78,-0.26 6.66,3.09 0.11,0.2 0.2,0.45 0.25,0.67 0.07,0.47 -0.29,1.05 -1.21,0.72 -5.61,-2.04 -8.38,-0.23 -10.46,1.07 -0.81,0.51 -1.73,-0.25 -1.57,-1.07 0.05,-0.25 0.05,-0.47 0.14,-0.7 1.4,-3.53 6.19,-3.78 6.19,-3.78z"/>
   <path class="fil16" d="M44.97 40.27c0,0 3.89,-0.22 6.75,2.35 -0.04,-0.13 -0.09,-0.27 -0.15,-0.4 -1.88,-3.36 -6.67,-3.09 -6.67,-3.09 0,0 -4.78,0.25 -6.19,3.78 -0.05,0.14 -0.09,0.27 -0.11,0.4 2.46,-2.84 6.37,-3.04 6.37,-3.04z"/>
   <path class="fil17" d="M33.14 66.59c-9.59,0 -12.68,-11.58 -9.75,-9.77 3.94,2.44 6.42,2.66 9.75,2.66 3.33,0 5.81,-0.22 9.75,-2.66 2.93,-1.81 -0.14,9.77 -9.75,9.77z"/>
   <path class="fil18" d="M42.89 56.82c-3.94,2.44 -6.42,2.66 -9.75,2.66 -3.33,0 -5.81,-0.22 -9.75,-2.66 -1.03,-0.63 -1.32,0.36 -0.85,1.92 0,-0.02 0.16,-1.7 1.52,-0.56 2.06,1.88 5.05,3.4 9.06,3.4 4,0 7.02,-1.54 9.05,-3.4 1.39,-1.16 1.52,0.52 1.52,0.56 0.52,-1.54 0.23,-2.55 -0.8,-1.92z"/>
   <path class="fil19" d="M63.84 59.39c1.28,-4.58 2.04,-9.88 2.04,-16.01 0,-11.6 -3.69,-16.35 -3.69,-16.35l-1.79 1.28c-1.16,8 7.29,16.88 -5.7,28.02 -7.23,6.19 -1.08,11.47 -21.74,11.47 -20.66,0 -14.49,-5.28 -21.73,-11.47 -13.02,-11.14 -4.54,-20.02 -5.71,-28.02l-1.79 -1.28c0,0 -3.69,4.75 -3.69,16.35 0,6.15 0.76,11.45 2.04,16.01 -0.29,4.9 2.44,9.64 2.44,9.64 0,0 -0.43,-2.39 0.2,-2.53 0.22,0.47 0.47,0.94 0.71,1.41 0.65,1.19 1.12,3.8 0.88,5.01 0,0 0.91,-0.8 1.23,-3.26 0.09,0.15 0,3.86 1.18,5.63 0,0 -0.13,-1.1 0.45,-1.54 0,0 1.68,2.35 1.85,4.58 0,0 0.29,-1 0.94,-1.41 0,0 2.11,0.9 2.6,3.38 0,0 0.96,-0.96 0.65,-1.9 0,0 2.28,2.88 2.88,4.87 0,0 0.02,-2.37 0.63,-2.37 0,0 3.04,-1.27 4.13,5.24 0,0 1.73,-1.93 4.18,-2.11 2.55,-0.17 4.5,1.99 5.98,5.46 3.6,-0.89 7.84,-5.3 7.84,-5.3 2.29,-0.96 3.43,1.28 3.43,1.28 0,-1.95 3.01,-4.57 3.01,-4.57 0.61,0 0.63,2.37 0.63,2.37 1.83,-1.2 2.88,-4.87 2.88,-4.87 0.83,0.56 0.65,1.9 0.65,1.9 1.5,-1.83 2.6,-3.38 2.6,-3.38 0.65,0.41 0.69,2.17 0.69,2.17 1.05,-1.41 1.66,-3.51 1.92,-4.6 0.12,0.87 1.21,1.61 1.21,1.61 0,-2.6 1.14,-6.04 1.14,-6.04 -0.18,2.55 1.14,3.08 1.14,3.08 -0.42,-2.77 0.94,-3.62 1.48,-6.23 0.31,0.71 0.33,2.14 0.33,2.14 0,0 2.17,-4.78 1.88,-9.66z"/>
   <path class="fil20" d="M9.55 55.75l1.79 0.65c2.3,2.01 3.22,3.91 4.11,5.59 -4.72,-1.55 -7.85,-7.5 -7.85,-7.5l1.95 1.26z"/>
   <path class="fil21" d="M56.35 55.77l-1.79 0.65c-2.3,2.01 -3.22,3.91 -4.11,5.59 4.74,-1.54 7.87,-7.49 7.87,-7.49l-1.97 1.25z"/>
   <path class="fil22" d="M67.71 30.08c-0.2,-1.32 -1.61,-3.29 -2.26,-4.16 -0.07,-0.14 -0.13,-0.27 -0.22,-0.41 1.25,0.41 2.06,0.9 2.06,0.9 -1.28,-1.68 -3.81,-3.11 -3.81,-3.11 -1.43,-3.17 -3.06,-3.6 -3.06,-3.6 -2.06,0.34 -5.12,-0.56 -5.12,-0.56 -1.45,-0.45 -0.6,-1.34 -0.6,-1.34 -1.86,-0.74 -5.95,0 -5.95,0 0,-0.02 0,-0.02 0,-0.05 0.2,-0.89 1.94,-1.94 1.94,-1.94 -2.97,0.98 -6.55,1.5 -6.55,1.5 -1.54,-0.56 -1.23,-1.66 -1.23,-1.66 0,0 -4.92,1.7 -7,1.19 -2.1,-0.49 -0.78,-1.97 -0.78,-1.97 -1.79,1.48 -7.27,2.21 -7.27,2.21 -0.94,-0.44 -0.96,-2.25 -0.96,-2.25 -0.27,1.34 -3.91,2.57 -3.91,2.57 -4.36,-0.25 -7.52,-1.08 -7.52,-1.08 1.73,0.88 1.03,1.77 0.09,2.08 -0.22,0.05 -0.42,0.09 -0.64,0.14 -1.12,0.04 -1.46,-0.67 -1.46,-0.67 -0.09,0.27 -0.42,0.73 -0.89,1.2 -0.96,0.25 -1.88,0.52 -2.71,0.79 0.25,-1.08 0.69,-1.66 0.69,-1.66 -1.49,0.61 -3.77,2.66 -4.42,3.24 -0.05,0.03 -0.11,0.07 -0.16,0.09 -0.76,-0.04 -0.96,-0.8 -0.96,-0.8 0,0 -1.16,1.3 -2.33,3.22 -2.26,2.35 -2.68,4.92 -2.68,7.11 0,2.97 0.69,3.85 1.32,4 0.47,0.34 2.86,1.48 2.86,1.48 0,0 -1.09,-0.47 0.31,-2.84 0,0 1.35,-0.23 0.92,0.87 0,0 2.13,-0.4 3.09,-2.95 0.13,-0.05 2.08,-0.69 3.35,0.71 0,0 1.12,-1.49 0.83,-2.21 0,0 0,0 0.02,0 0.22,-0.04 2.98,-0.69 4.18,-0.25 0,0 0.18,-0.38 -0.49,-0.71 0.29,-0.07 0.58,-0.13 0.87,-0.18 1.14,-0.18 3.09,-0.31 4.12,0.69 0,0 1.12,-1.38 3.66,-1.65 0.3,-0.02 0.59,-0.02 0.88,-0.05 2.3,0 3.06,2.11 3.06,2.11 0,0 0.87,-1.28 0.16,-2.15 0,0 3.64,-0.36 6.59,1.36 0,0 0.56,-0.65 0.32,-1.2 2.26,0.02 3.04,1.02 2.64,1.85 0,0 3.91,-1.56 7.33,-1.25 2.15,0.29 3.62,1.12 3.87,2.15 0,0 1,-0.56 0.89,-1.43 0.65,0.11 1.32,0.24 1.95,0.38 0.96,0.35 0.76,1.56 3.4,2.59 0,0 -1.32,-1.19 -0.36,-1.86 0.18,0.07 4.23,1.57 3.91,3.67 0,0 1.28,-1.86 3.09,-0.76 0.09,0.07 0.18,0.11 0.27,0.18 0.58,0.47 -0.41,2.53 -0.41,2.53 0,0 2.31,-0.23 3.07,-1.86 0.02,-0.07 0.04,-0.11 0.06,-0.18 0.38,-0.54 0.65,-1.59 0.65,-3.51 0,-0.54 -0.02,-1.1 -0.11,-1.68 0.05,0.03 0.07,0.05 0.11,0.07 0.54,0.47 1.3,1.1 1.3,1.1z"/>
   <path class="fil23" d="M32.96 48.84c-7.18,-2.31 -10.26,5.65 -25.36,5.65l0.03 0.03c3.6,5.18 10.57,6.59 15.98,3.35 3.96,-2.37 5.97,-0.09 9.35,-0.09 3.38,0 5.39,-2.28 9.35,0.09 5.41,3.24 12.41,1.83 15.99,-3.35l0.02 -0.03c-15.07,0 -18.18,-7.96 -25.36,-5.65z"/>
   <path class="fil24" d="M58.32 54.52c0,0 -3.91,3.22 -8.92,3.22 -4.45,0 -10.83,-4.27 -15.01,-2.82 -0.47,0.16 -0.94,0.25 -1.43,0.25 -0.49,0 -0.96,-0.09 -1.43,-0.25 -4.18,-1.43 -10.55,2.82 -15,2.82 -5.01,0 -8.93,-3.22 -8.93,-3.22 3.6,5.18 10.58,6.59 15.99,3.35 3.96,-2.37 5.97,-0.09 9.35,-0.09 3.37,0 5.39,-2.28 9.35,0.09 5.45,3.24 12.43,1.83 16.03,-3.35z"/>
   <path class="fil25" style="mask:url(#id10)" d="M51.41 7.69c-0.47,2.62 -6.37,3.76 -13.17,2.53 -6.8,-1.23 -11.94,-4.34 -11.47,-6.96 0.47,-2.61 6.37,-3.75 13.17,-2.52 6.8,1.23 11.96,4.34 11.47,6.95z"/>
   <path class="fil26" d="M18.07 83.23c0,0 0.02,-2.37 0.62,-2.37 0,0 2.6,-1.1 3.85,3.87 -0.47,-3.83 1.14,-8.03 0.07,-11.34 0,0 0.18,3.73 -1.37,5.46 -1.56,1.72 -3.69,1.85 -3.17,4.38z"/>
   <path class="fil27" d="M6.31 72.9c0.58,-1.92 -0.14,-4.41 -0.32,-5.55 -0.18,-1.16 0.63,-2.43 0.63,-2.43 0,0 -0.87,-0.03 -1.9,1.58 0.22,0.47 0.47,0.94 0.71,1.41 0.65,1.16 1.12,3.78 0.88,4.99z"/>
   <path class="fil28" d="M9.19 73.73c0,0 1.68,2.34 1.86,4.58 0,0 0.13,-0.92 -0.63,-3.33 -0.78,-2.42 0.4,-4.32 0.4,-4.32 0,0 -1.45,0.9 -1.63,3.07z"/>
   <path class="fil29" d="M15.18 78.35c0,0 0.81,1.03 1.59,2.29 -0.85,-2.58 -2.32,-7.05 -2.32,-7.05 -0.36,1.61 -0.27,1.7 0.73,4.76z"/>
   <path class="fil30" d="M4.38 67.38c-0.09,0.55 -0.02,1.11 0.11,1.63 0,0.02 0.03,0.02 0.03,0.02 0,0 -0.16,-0.94 -0.14,-1.65z"/>
   <path class="fil31" d="M47.25 80.86c0.6,0 0.63,2.37 0.63,2.37 0.71,-4.94 -1.64,-8.27 -1.64,-8.27 0.41,3.15 -3.93,7.08 -2.14,10.24 0.09,0.13 0.13,0.2 0.13,0.2 0,-1.92 3.02,-4.54 3.02,-4.54z"/>
   <path class="fil32" d="M29.65 75.11c0,0 -2.21,4.94 -1.5,8.97 1.99,0.45 3.58,2.46 4.81,5.37 0.74,-1.19 -4.45,-8.57 -3.31,-14.34z"/>
   <path class="fil33" d="M57.25 70.19c0.44,2.73 0.55,5.86 0.55,5.86 0,-2.59 1.14,-6.04 1.14,-6.04 0.41,-2.68 -0.87,-3.64 0,-5.83 0,0 -2.14,3.28 -1.69,6.01z"/>
   <path class="fil34" d="M53.96 76.88c0.65,0.4 0.69,2.17 0.69,2.17 0.02,-0.02 0.02,-0.05 0.05,-0.07 0.35,-1.34 -0.23,-3.29 -0.52,-4.61 -0.31,-1.4 0.2,-3.04 0.2,-3.04 -0.35,0.58 -1.45,2.04 -0.42,5.55z"/>
   <path class="fil35" d="M40.81 84.15c0,-2.66 -1.21,-4.48 -1.21,-4.48 -0.91,5.42 -6.64,9.78 -6.64,9.78 3.6,-0.9 7.85,-5.3 7.85,-5.3z"/>
   <path class="fil36" d="M67.4 52.66c0,0 0,-0.02 0.02,-0.02 -0.02,0 -0.02,0 -0.02,0.02z"/>
   <path class="fil37" d="M61.54 66.86c0,0.04 -0.02,0.09 -0.02,0.11l0.06 -0.02c-0.02,-0.02 -0.02,-0.05 -0.04,-0.09z"/>
   <path class="fil38" d="M68.14 68.87c0,0.05 -0.03,0.07 -0.03,0.11 0,-0.02 -0.02,-0.02 -0.02,-0.04 -0.04,-0.04 -0.07,-0.11 -0.09,-0.16 -0.98,-0.71 -2.21,-1.92 -1.88,-3.46 0.54,-2.53 -0.78,-5.39 -0.78,-5.39 0,0 0.74,-2.1 0.98,-3.09 0.21,-0.78 0.29,-2.35 0.81,-3.62 -0.05,-0.13 -0.07,-0.29 0.02,-0.47 0,0 0,-0.02 0.02,-0.02l0 0.02c0.05,0.09 0.05,0.16 0.05,0.25 0.02,-0.07 0.07,-0.14 0.09,-0.21l-0.11 -0.15c-0.03,-0.02 -0.03,-0.02 -0.05,-0.02 -0.02,0 -0.02,0 -0.04,0.02l-0.29 0.36 -0.29 -0.36c-0.03,-0.02 -0.05,-0.02 -0.07,0 -0.02,-0.02 -0.05,0 -0.07,0.02 -0.02,-0.02 -0.04,-0.02 -0.07,0l-0.22 0.34 -0.29 -0.29c-0.05,-0.05 -0.09,0 -0.07,0.04 0,0.02 0.02,0.02 0.02,0.04 0.05,0.09 0.09,0.16 0.09,0.25l-0.31 -0.31c-0.02,-0.02 -0.07,0 -0.07,0.02 -0.02,-0.02 -0.06,-0.02 -0.06,0l-0.18 0.36 -0.09 -0.07c-0.34,2.26 -0.81,4.38 -1.34,6.37 0.2,3.31 -0.79,6.58 -1.43,8.32l0.02 0.18c0,0.02 0.02,0.05 0.04,0.05 0.03,0.02 0.07,0.02 0.09,-0.03l0 -0.02c0,-0.02 0,-0.04 0,-0.07 0.02,-0.22 0.14,-0.35 0.29,-0.44 0.03,0 0.03,0 0.05,-0.03 0.02,0.18 -0.05,0.38 -0.25,0.52 -0.02,0.02 -0.04,0.02 -0.07,0.04 -0.04,0.03 0,0.09 0.05,0.07l0.36 -0.16 0.06 0.38c0,0.05 0.09,0.05 0.09,0l0 -0.02c0,-0.02 0,-0.04 0,-0.09 0,-0.09 0.03,-0.15 0.05,-0.24l0.09 0.44c0,0.05 0.09,0.05 0.09,0l0 -0.02c0,-0.02 0,-0.04 0,-0.09 0,-0.22 0.11,-0.4 0.27,-0.49 0.04,0.18 -0.03,0.38 -0.21,0.54 -0.02,0.02 -0.04,0.02 -0.06,0.04 -0.05,0.05 0,0.09 0.04,0.07l0.34 -0.2 0.11 0.38c0,0.02 0.02,0.04 0.04,0.02 0.03,0.02 0.05,0.02 0.07,0 0,0.02 0.05,0.04 0.07,0.02l0.33 -0.22 0.14 0.38c0.02,0.04 0.09,0.02 0.09,-0.02l0 -0.03c-0.03,-0.06 -0.03,-0.15 -0.05,-0.22 0,-0.07 0,-0.13 0,-0.18l0.2 0.49c0.03,0.05 0.05,0.03 0.07,0.03 0,0.02 0.05,0.04 0.07,0.02l0.31 -0.27 0.18 0.36c0.02,0.04 0.09,0.02 0.09,-0.02l0.02 0.04c0,0.02 0.02,0.02 0.05,0.02 0.02,0 0.02,0 0.04,0l0.31 -0.31 0.25 0.38c0.02,0.04 0.09,0 0.07,-0.05 0,-0.02 -0.03,-0.04 -0.03,-0.06 -0.02,-0.09 -0.04,-0.16 -0.04,-0.25l0.25 0.38c0.02,0.02 0.02,0.02 0.04,0.02 0.02,0 0.02,0 0.05,-0.02l0.29 -0.36 0.29 0.36c0.02,0.02 0.04,0.02 0.06,0 0.03,0.02 0.05,0 0.07,-0.02 0.02,0.02 0.05,0.04 0.07,0l0.22 -0.34 0.27 0.29c0.04,0.05 0.09,0 0.07,-0.04 0,-0.02 -0.03,-0.02 -0.03,-0.04 -0.04,-0.09 -0.08,-0.16 -0.08,-0.25l0.31 0.31c0.02,0.02 0.07,0 0.07,-0.02 0.02,0.02 0.06,0.02 0.06,0l0.05 -0.09c0.02,0.07 0,0.05 -0.02,0.02zm-1.79 -15.99c0.02,-0.06 0.06,-0.13 0.09,-0.2 0,0.03 0.02,0.03 0.02,0.05 0.11,0.2 0.09,0.42 -0.02,0.58 0,0 0,0 -0.03,-0.02l-0.11 -0.14c0,-0.09 0.02,-0.18 0.05,-0.27zm-0.88 0.09c0.03,-0.06 0.05,-0.13 0.07,-0.22 0,0.02 0.02,0.02 0.02,0.04 0.14,0.21 0.14,0.41 0.05,0.59 0,0 0,0 -0.02,0l-0.14 -0.12c0,-0.08 0,-0.17 0.02,-0.29zm-1.43 15.57c-0.02,0.02 -0.02,0.02 -0.04,0.04l0 -0.02c0,-0.07 -0.02,-0.16 -0.02,-0.22 0,-0.05 0,-0.12 0,-0.16 0.04,-0.09 0.11,-0.18 0.2,-0.25 0.06,0.23 0.04,0.43 -0.14,0.61zm0.85 0.27c0,0.02 -0.02,0.02 -0.02,0.04l0 -0.02c-0.02,-0.07 -0.02,-0.14 -0.04,-0.23 -0.05,-0.2 0.02,-0.35 0.13,-0.47 0.09,0.21 0.11,0.45 -0.07,0.68zm0.7 0.11c-0.09,-0.2 -0.03,-0.38 0.06,-0.52 0.07,0.16 0.07,0.34 -0.06,0.52zm0.89 0.09c-0.02,0 -0.02,0 0,0 -0.11,-0.2 -0.07,-0.38 0.02,-0.52 0.07,0.14 0.07,0.32 -0.02,0.52zm0.81 -0.16c-0.03,0.07 -0.07,0.13 -0.09,0.2 0,-0.02 -0.03,-0.02 -0.03,-0.04 -0.11,-0.2 -0.09,-0.43 0.03,-0.58 0,0 0,0 0,0.02l0.11 0.13c0.02,0.09 0.02,0.18 -0.02,0.27z"/>
  </g>
 </g>
</svg>
