<?xml version="1.0" encoding="UTF-8"?>
<!DOCTYPE svg PUBLIC "-//W3C//DTD SVG 1.1//EN" "http://www.w3.org/Graphics/SVG/1.1/DTD/svg11.dtd">
<!-- Creator: CorelDRAW 2017 -->
<svg xmlns="http://www.w3.org/2000/svg" xml:space="preserve" width="2344px" height="2344px" version="1.1" style="shape-rendering:geometricPrecision; text-rendering:geometricPrecision; image-rendering:optimizeQuality; fill-rule:evenodd; clip-rule:evenodd"
viewBox="0 0 2344 2344"
 xmlns:xlink="http://www.w3.org/1999/xlink"
 aria-hidden="true"
 role="img">
 <defs>
  <style type="text/css">
   <![CDATA[
    .fil2 {fill:#493B30}
    .fil0 {fill:#F46767}
    .fil1 {fill:#FFDD67}
    .fil3 {fill:white}
   ]]>
  </style>
 </defs>
 <g id="Слой_x0020_1">
  <metadata id="CorelCorpID_0Corel-Layer"/>
  <g id="_2560183595040">
   <circle class="fil0" cx="1172" cy="1172" r="1172"/>
   <g>
    <path class="fil1" d="M574.28 324.25c-218.78,-105.48 -359.42,-316.44 -359.42,-316.44 -58.6,562.56 167.99,699.3 300.82,703.2 171.89,0 308.62,-265.65 58.6,-386.76l0 0zm0 0l0 0 0 0z"/>
   </g>
   <g>
    <path class="fil1" d="M1769.72 324.25c218.78,-105.48 359.42,-316.44 359.42,-316.44 58.6,562.56 -167.99,699.3 -300.82,703.2 -171.89,0 -308.62,-265.65 -58.6,-386.76l0 0zm0 0l0 0 0 0z"/>
   </g>
   <path class="fil2" d="M597.72 1613.45c97.66,58.6 191.43,89.86 285.19,113.3 93.76,23.44 191.42,31.25 289.09,31.25 97.67,0 191.43,-11.72 289.09,-31.25 93.76,-23.44 187.53,-58.6 285.19,-113.3 -42.97,105.48 -132.83,191.43 -234.4,242.22 -105.48,54.69 -222.68,78.13 -335.97,78.13 -117.2,0 -234.4,-27.34 -335.98,-78.13 -109.38,-50.79 -199.24,-136.74 -242.21,-242.22z"/>
   <g>
    <path class="fil3" d="M1965.06 968.85c78.13,167.99 3.9,367.23 -164.09,445.36 -167.98,78.14 -367.22,3.91 -445.36,-164.08 -58.6,-125.01 550.85,-410.2 609.45,-281.28l0 0zm0 0l0 0 0 0z"/>
   </g>
   <g>
    <path class="fil2" d="M1867.39 1011.83c54.69,113.29 3.9,250.02 -109.39,300.81 -113.29,54.69 -250.03,3.91 -300.81,-109.39 -39.07,-70.32 375.04,-261.74 410.2,-191.42l0 0zm0 0l0 0 0 0z"/>
   </g>
   <path class="fil2" d="M2027.56 980.57c-74.23,7.82 -136.73,19.54 -203.14,35.16 -62.51,15.63 -121.11,39.07 -179.71,66.42 -58.6,27.34 -113.29,58.6 -164.08,93.76 -54.69,39.06 -101.58,82.04 -156.27,132.82 7.81,-74.22 42.97,-144.54 93.76,-199.24 46.88,-58.6 113.29,-101.57 179.71,-132.82 70.32,-31.26 144.55,-50.79 218.77,-50.79 74.23,-3.91 148.46,15.63 210.96,54.69z"/>
   <g>
    <path class="fil3" d="M378.94 968.85c-78.13,167.99 -3.9,367.23 164.09,445.36 167.98,78.14 367.22,3.91 445.36,-164.08 58.6,-125.01 -550.85,-410.2 -609.45,-281.28l0 0zm0 0l0 0 0 0z"/>
   </g>
   <g>
    <path class="fil2" d="M476.61 1011.83c-54.69,113.29 -3.9,250.02 109.39,300.81 113.29,54.69 250.03,3.91 300.81,-109.39 39.07,-70.32 -375.04,-261.74 -410.2,-191.42l0 0zm0 0l0 0 0 0z"/>
   </g>
   <path class="fil2" d="M316.44 980.57c62.5,-39.06 136.73,-58.6 210.96,-54.69 74.23,0 148.45,19.53 218.77,50.79 66.42,31.25 128.92,78.13 179.71,132.82 46.88,58.6 85.95,125.02 93.76,199.24 -50.79,-50.78 -101.58,-93.76 -156.27,-132.82 -54.69,-39.07 -109.39,-70.32 -164.08,-93.76 -58.6,-27.35 -117.2,-46.88 -179.71,-66.42 -66.41,-19.53 -128.92,-27.34 -203.14,-35.16z"/>
  </g>
 </g>
</svg>
