<?xml version="1.0" encoding="UTF-8"?>
<!DOCTYPE svg PUBLIC "-//W3C//DTD SVG 1.1//EN" "http://www.w3.org/Graphics/SVG/1.1/DTD/svg11.dtd">
<svg xmlns="http://www.w3.org/2000/svg" xml:space="preserve" width="100px" height="100px" version="1.1" style="shape-rendering:geometricPrecision; text-rendering:geometricPrecision; image-rendering:optimizeQuality; fill-rule:evenodd; clip-rule:evenodd"
viewBox="0 0 100 99.91"
 xmlns:xlink="http://www.w3.org/1999/xlink">
 <defs>
  <style type="text/css">
   <![CDATA[
    .fil1 {fill:#26D367}
    .fil0 {fill:white}
   ]]>
  </style>
 </defs>
 <g id="Layer_x0020_1">
  <metadata id="CorelCorpID_0Corel-Layer"/>
  <g id="_1953822922368">
   <g>
    <path class="fil0" d="M46.3 20.33c1.83,-0.25 3.7,-0.2 5.54,-0.1 1.97,0.19 3.94,0.5 5.84,1.07 1.76,0.52 3.5,1.15 5.12,2 3,1.51 5.71,3.55 8.04,5.95 4.19,4.36 6.97,10.05 7.84,16.03 1.12,7.38 -0.68,15.17 -5.01,21.26 -2.03,2.89 -4.56,5.44 -7.49,7.42 -2.43,1.67 -5.11,2.98 -7.93,3.83 -2.96,0.93 -6.07,1.4 -9.18,1.32 -4.22,-0.07 -8.45,-1.02 -12.26,-2.87 -0.24,-0.11 -0.5,-0.33 -0.78,-0.22 -4.53,1.29 -9.06,2.55 -13.59,3.83 -0.59,0.14 -1.16,0.38 -1.76,0.44 1.03,-4.95 2.12,-9.89 3.18,-14.85 0.06,-0.39 0.31,-0.83 0.04,-1.2 -2.37,-4.09 -3.67,-8.78 -3.85,-13.5 0.02,-1.14 -0.06,-2.29 0.08,-3.43 0.06,-1.24 0.28,-2.47 0.52,-3.69 0.8,-3.94 2.45,-7.69 4.76,-10.98 3.19,-4.53 7.68,-8.13 12.8,-10.25 1.71,-0.71 3.5,-1.24 5.3,-1.65 0.93,-0.15 1.85,-0.33 2.79,-0.41l0 0zm-1.7 5.38c-2.91,0.62 -5.73,1.72 -8.23,3.35 -2.4,1.55 -4.55,3.49 -6.27,5.77 -3.82,4.97 -5.59,11.45 -4.83,17.67 0.43,3.73 1.75,7.33 3.79,10.47 0.16,0.27 0.44,0.54 0.34,0.88 -0.62,2.85 -1.22,5.7 -1.85,8.54 -0.06,0.25 -0.11,0.49 -0.13,0.75 0.64,-0.09 1.24,-0.35 1.87,-0.5 2.24,-0.64 4.48,-1.25 6.72,-1.89 0.28,-0.08 0.54,-0.19 0.83,-0.2 0.35,0.13 0.66,0.35 0.99,0.51 2.81,1.55 5.92,2.52 9.11,2.84 1.17,0.2 2.35,0.14 3.52,0.14 2.4,-0.14 4.78,-0.56 7.05,-1.34 4.53,-1.57 8.59,-4.5 11.47,-8.34 3.08,-4.05 4.85,-9.09 4.94,-14.17 0.13,-4.86 -1.27,-9.74 -3.9,-13.82 -1.69,-2.57 -3.84,-4.84 -6.33,-6.63 -5.44,-3.91 -12.54,-5.4 -19.09,-4.03z"/>
   </g>
   <path class="fil0" d="M39.94 35.23c0.62,-0.14 1.27,-0.05 1.91,-0.08 0.4,0.01 0.87,-0.07 1.21,0.22 0.36,0.32 0.53,0.79 0.71,1.22 0.81,1.97 1.62,3.93 2.44,5.89 0.1,0.24 0.14,0.53 -0.03,0.75 -0.56,0.83 -1.09,1.69 -1.63,2.53 -0.19,0.3 -0.45,0.54 -0.65,0.83 -0.22,0.3 -0.25,0.7 -0.14,1.04 0.16,0.38 0.41,0.7 0.62,1.04 0.78,1.17 1.66,2.28 2.64,3.29 1.34,1.32 2.85,2.47 4.48,3.39 0.79,0.45 1.59,0.89 2.41,1.29 0.37,0.18 0.75,0.41 1.18,0.4 0.47,-0.03 0.91,-0.29 1.18,-0.67 0.66,-0.91 1.35,-1.8 2.02,-2.71 0.19,-0.26 0.41,-0.53 0.73,-0.64 0.34,-0.11 0.68,0.06 0.98,0.22 0.92,0.48 1.88,0.89 2.8,1.36 1.32,0.67 2.66,1.29 3.99,1.95 0.2,0.1 0.43,0.24 0.45,0.49 0.13,0.9 -0.21,1.76 -0.46,2.6 -0.14,0.47 -0.38,0.9 -0.68,1.28 -0.91,1.21 -2.17,2.19 -3.6,2.69 -0.54,0.2 -1.12,0.24 -1.68,0.36 -0.94,0.22 -1.94,0.24 -2.88,0.04 -1.88,-0.36 -3.64,-1.12 -5.41,-1.83 -3.04,-1.27 -5.84,-3.1 -8.25,-5.36 -1.4,-1.32 -2.68,-2.77 -3.81,-4.33 -0.63,-0.86 -1.15,-1.79 -1.82,-2.63 -0.84,-1.16 -1.55,-2.43 -2.04,-3.78 -0.6,-1.75 -0.88,-3.64 -0.55,-5.47 0.27,-1.45 0.94,-2.82 1.91,-3.93 0.52,-0.63 1.16,-1.22 1.97,-1.45z"/>
   <g>
    <path class="fil1" d="M14.31 0l71.46 0c1.28,0.12 2.57,0.3 3.79,0.72 3.8,1.18 7.06,3.99 8.84,7.55 0.76,1.49 1.25,3.11 1.46,4.78 0.17,1.07 0.13,2.16 0.14,3.25 -0.01,21.91 0,43.83 0,65.74 -0.02,1.7 0.07,3.41 -0.16,5.11 -0.45,3.15 -1.93,6.16 -4.2,8.4 -1.6,1.66 -3.63,2.89 -5.79,3.66 -0.93,0.33 -1.91,0.49 -2.87,0.7l-73.97 0c-1.14,-0.25 -2.31,-0.45 -3.4,-0.91 -2.84,-1.08 -5.31,-3.07 -7.03,-5.57 -1.67,-2.46 -2.6,-5.44 -2.58,-8.43 0,-22.78 0,-45.55 0,-68.33 0,-1.08 -0.02,-2.17 0.08,-3.24 0.26,-2.72 1.33,-5.33 2.97,-7.51 1.45,-1.87 3.32,-3.42 5.46,-4.44 1.8,-0.89 3.8,-1.38 5.8,-1.48l0 0zm31.99 20.33c-0.94,0.08 -1.86,0.26 -2.79,0.41 -1.8,0.41 -3.59,0.94 -5.3,1.65 -5.12,2.12 -9.61,5.72 -12.8,10.25 -2.31,3.29 -3.96,7.04 -4.76,10.98 -0.24,1.22 -0.46,2.45 -0.52,3.69 -0.14,1.14 -0.06,2.29 -0.08,3.43 0.18,4.72 1.48,9.41 3.85,13.5 0.27,0.37 0.02,0.81 -0.04,1.2 -1.06,4.96 -2.15,9.9 -3.18,14.85 0.6,-0.06 1.17,-0.3 1.76,-0.44 4.53,-1.28 9.06,-2.54 13.59,-3.83 0.28,-0.11 0.54,0.11 0.78,0.22 3.81,1.85 8.04,2.8 12.26,2.87 3.11,0.08 6.22,-0.39 9.18,-1.32 2.82,-0.85 5.5,-2.16 7.93,-3.83 2.93,-1.98 5.46,-4.53 7.49,-7.42 4.33,-6.09 6.13,-13.88 5.01,-21.26 -0.87,-5.98 -3.65,-11.67 -7.84,-16.03 -2.33,-2.4 -5.04,-4.44 -8.04,-5.95 -1.62,-0.85 -3.36,-1.48 -5.12,-2 -1.9,-0.57 -3.87,-0.88 -5.84,-1.07 -1.84,-0.1 -3.71,-0.15 -5.54,0.1z"/>
   </g>
   <g>
    <path class="fil1" d="M44.6 25.71c6.55,-1.37 13.65,0.12 19.09,4.03 2.49,1.79 4.64,4.06 6.33,6.63 2.63,4.08 4.03,8.96 3.9,13.82 -0.09,5.08 -1.86,10.12 -4.94,14.17 -2.88,3.84 -6.94,6.77 -11.47,8.34 -2.27,0.78 -4.65,1.2 -7.05,1.34 -1.17,0 -2.35,0.06 -3.52,-0.14 -3.19,-0.32 -6.3,-1.29 -9.11,-2.84 -0.33,-0.16 -0.64,-0.38 -0.99,-0.51 -0.29,0.01 -0.55,0.12 -0.83,0.2 -2.24,0.64 -4.48,1.25 -6.72,1.89 -0.63,0.15 -1.23,0.41 -1.87,0.5 0.02,-0.26 0.07,-0.5 0.13,-0.75 0.63,-2.84 1.23,-5.69 1.85,-8.54 0.1,-0.34 -0.18,-0.61 -0.34,-0.88 -2.04,-3.14 -3.36,-6.74 -3.79,-10.47 -0.76,-6.22 1.01,-12.7 4.83,-17.67 1.72,-2.28 3.87,-4.22 6.27,-5.77 2.5,-1.63 5.32,-2.73 8.23,-3.35l0 0zm-4.66 9.52c-0.81,0.23 -1.45,0.82 -1.97,1.45 -0.97,1.11 -1.64,2.48 -1.91,3.93 -0.33,1.83 -0.05,3.72 0.55,5.47 0.49,1.35 1.2,2.62 2.04,3.78 0.67,0.84 1.19,1.77 1.82,2.63 1.13,1.56 2.41,3.01 3.81,4.33 2.41,2.26 5.21,4.09 8.25,5.36 1.77,0.71 3.53,1.47 5.41,1.83 0.94,0.2 1.94,0.18 2.88,-0.04 0.56,-0.12 1.14,-0.16 1.68,-0.36 1.43,-0.5 2.69,-1.48 3.6,-2.69 0.3,-0.38 0.54,-0.81 0.68,-1.28 0.25,-0.84 0.59,-1.7 0.46,-2.6 -0.02,-0.25 -0.25,-0.39 -0.45,-0.49 -1.33,-0.66 -2.67,-1.28 -3.99,-1.95 -0.92,-0.47 -1.88,-0.88 -2.8,-1.36 -0.3,-0.16 -0.64,-0.33 -0.98,-0.22 -0.32,0.11 -0.54,0.38 -0.73,0.64 -0.67,0.91 -1.36,1.8 -2.02,2.71 -0.27,0.38 -0.71,0.64 -1.18,0.67 -0.43,0.01 -0.81,-0.22 -1.18,-0.4 -0.82,-0.4 -1.62,-0.84 -2.41,-1.29 -1.63,-0.92 -3.14,-2.07 -4.48,-3.39 -0.98,-1.01 -1.86,-2.12 -2.64,-3.29 -0.21,-0.34 -0.46,-0.66 -0.62,-1.04 -0.11,-0.34 -0.08,-0.74 0.14,-1.04 0.2,-0.29 0.46,-0.53 0.65,-0.83 0.54,-0.84 1.07,-1.7 1.63,-2.53 0.17,-0.22 0.13,-0.51 0.03,-0.75 -0.82,-1.96 -1.63,-3.92 -2.44,-5.89 -0.18,-0.43 -0.35,-0.9 -0.71,-1.22 -0.34,-0.29 -0.81,-0.21 -1.21,-0.22 -0.64,0.03 -1.29,-0.06 -1.91,0.08z"/>
   </g>
  </g>
 </g>
</svg>
